<svg xmlns="http://www.w3.org/2000/svg" xml:space="preserve" viewBox="0 0 365.32 115.413">
  <path d="M1092.04 541.379h36.46l63.29-161.203H1156l-13.87 36.926h-65.34l-14.09-36.926h-33.5zm17.76-32.356h-.48l-23.28-66.507h47.09l-23.33 66.507m98.82 32.36h34.89c34.63 0 75.95 1.148 75.95-43.684 0-18.918-12.69-34.597-33.24-37.394v-.426c8.78-.703 13.85-9.496 17.1-16.645l25.86-63.078h-36.04l-19.38 50.364c-4.66 11.996-8.76 16.632-22.41 16.632h-10.41v-66.996h-32.32zm32.32-68.86h10.66c15.91 0 34.18 2.34 34.18 22.43 0 19.391-18.03 21.016-34.18 21.016h-10.66v-43.446m140.19 43.446h-46.19v25.414h124.72v-25.414h-46.24V380.156h-32.29v135.813m185.65-4.16c-10.16 4.394-21.48 6.941-32.78 6.941-11.09 0-25.42-4.867-25.42-22.418 0-27.941 70.69-16.156 70.69-70.187 0-35.344-27.98-48.762-60.51-48.762-17.55 0-25.42 2.285-41.34 6.25l2.97 29.101c11.13-6.015 23.81-9.941 36.51-9.941 12.24 0 28.63 6.25 28.63 20.793 0 30.719-70.66 18.016-70.66 71.371 0 36.039 27.92 49.195 56.36 49.195 13.83 0 26.76-1.851 38.55-5.789l-3-26.554m218.7-129.368c-11.77-2.753-24.49-5.039-36.73-5.039-52.18 0-88.45 26.094-88.45 80.629 0 55.157 33.72 86.121 88.45 86.121 10.62 0 24.72-2.086 36.48-6.718l-2.3-27.246c-12.24 6.941-23.31 8.546-34.87 8.546-33.26 0-54.04-25.394-54.04-58.429 0-32.793 20.3-57.512 54.73-57.512 12.72 0 27.68 2.793 35.33 6.699l1.4-27.051m93.96 161.711c50.57 0 79-34.195 79-82.918 0-48.714-27.98-83.832-79-83.832-51.71 0-78.96 34.414-78.96 83.832 0 49.426 27.69 82.918 78.96 82.918m0-141.359c33.01 0 45.29 29.348 45.29 58.441 0 28.418-13.2 57.5-45.29 57.5-32.08 0-45.25-29.082-45.25-57.5 0-29.093 12.25-58.441 45.25-58.441m100.44 138.586h32.34v-93.098c0-27.488 8.76-45.488 33.5-45.488 24.68 0 33.49 18 33.49 45.488v93.098h32.31V438.352c0-43.176-24.48-60.969-65.8-60.969-41.34 0-65.84 17.793-65.84 60.969v103.027m155.88 0h39.71l61.41-120.586h.48v120.586h30.95V380.176h-39.49l-61.64 120.558h-.47V380.176h-30.95v161.203m278.7-158.938c-11.75-2.753-24.47-5.039-36.7-5.039-52.2 0-88.46 26.094-88.46 80.629 0 55.157 33.72 86.121 88.46 86.121 10.61 0 24.69-2.086 36.45-6.718l-2.27-27.246c-12.26 6.941-23.32 8.546-34.86 8.546-33.25 0-54.06-25.394-54.06-58.429 0-32.793 20.3-57.512 54.74-57.512 12.68 0 27.7 2.793 35.32 6.699l1.38-27.051m24.5 158.938h32.32V380.176h-32.32v161.203m57.71 0h32.32V405.586h62.6v-25.41h-94.92v161.203M1029.68 310.43h95.16v-25.371H1062v-39.746h57.52v-25.411H1062v-45.254h63.29v-25.41h-95.61V310.43m122.14 0h39.75l61.41-120.528h.46V310.43h30.95V149.238h-39.47l-61.69 120.547h-.45V149.238h-30.96V310.43m288.44-31.172c-12.47 5.781-28.65 8.535-41.62 8.535-37.62 0-58.37-25.391-58.37-58.418 0-32.773 20.3-57.48 54.71-57.48 8.81 0 15.71.918 21.25 2.285v42.031h-34.19v25.41h65.11v-86.836c-17.07-4.609-34.86-8.32-52.17-8.32-52.18 0-88.44 26.113-88.44 80.605 0 55.196 33.73 86.133 88.44 86.133 18.71 0 33.48-2.519 47.36-6.699l-2.08-27.246m32.76 31.172h32.34V174.648h62.57v-25.41h-94.91V310.43m172.03 0h36.5l63.29-161.211h-35.79l-13.88 36.953h-65.34l-14.07-36.953h-33.51zm17.79-32.305h-.43l-23.36-66.523h47.12l-23.33 66.523m97.67 32.305h39.72l61.44-120.528h.44V310.43h30.96V149.238h-39.49l-61.68 120.547h-.45V149.238h-30.94V310.43m158.95 0h44.11c49.39 0 93.06-16.641 93.06-80.606 0-63.926-43.67-80.586-93.06-80.586h-44.11zm32.33-135.782h18.01c27 0 53.12 20.079 53.12 55.176 0 35.137-26.12 55.215-53.12 55.215h-18.01V174.648M1031.31 635.27c3.75-1.622 9.13-3.047 16.04-3.047 10.98 0 23.26 5.683 23.26 20.007 0 20.723-32.51 20.833-32.51 35.051 0 9.145 8.04 12.192 15.36 12.192 4.77 0 9.75-.91 12.89-2.637l1.12 6.391c-4.86 1.824-10.46 2.332-13.92 2.332-12.49 0-22.43-7.102-22.43-18.477 0-18.59 32.5-20.324 32.5-34.242 0-10.067-7.22-14.527-15.96-14.527-6.6 0-11.48 1.515-15.64 4.164zm93.96 49.968h-6.4v-28.64c0-8.645-3.65-18.891-15.34-18.891-8.84 0-12.3 6.289-12.3 16.043v31.488h-6.38v-33.113c0-11.379 4.86-19.902 17.66-19.902 10.78 0 14.64 5.777 16.77 10.453h.21v-9.227h6.18c-.4 4.164-.4 8.223-.4 12.184zm16.82-73.129h6.39v30.157h.2c3.16-6.688 8.03-10.043 16.16-10.043 14.23 0 21.32 11.773 21.32 27.121 0 15.746-6.07 27.113-21.32 27.113-10.98 0-14.94-7.805-16.56-10.648h-.21l.41 9.429h-6.39zm37.08 47.235c0-10.055-3.15-21.637-15.34-21.637-11.39 0-15.35 12.191-15.35 21.637 0 9.453 3.96 21.644 15.35 21.644 12.19 0 15.34-11.582 15.34-21.644m21.24-47.235h6.38v30.157h.21c3.15-6.688 8.02-10.043 16.16-10.043 14.23 0 21.33 11.773 21.33 27.121 0 15.746-6.09 27.113-21.33 27.113-10.98 0-14.94-7.805-16.56-10.648h-.2l.39 9.429h-6.38zm37.08 47.235c0-10.055-3.15-21.637-15.35-21.637-11.38 0-15.35 12.191-15.35 21.637 0 9.453 3.97 21.644 15.35 21.644 12.2 0 15.35-11.582 15.35-21.644m18.27 0c0-14.121 7.4-27.121 24.18-27.121 16.76 0 24.17 13 24.17 27.121 0 14.129-7.41 27.113-24.17 27.113-16.78 0-24.18-12.984-24.18-27.113m7 0c0 11.992 6 21.644 17.18 21.644 11.17 0 17.17-9.652 17.17-21.644 0-11.992-6-21.637-17.17-21.637-11.18 0-17.18 9.645-17.18 21.637m55.17-25.895h6.39v25.594c0 9.348 2.74 20.723 12.9 20.723 1.63 0 3.35-.2 4.67-.61v6.696c-1.11.304-2.94.605-4.46.605-6.62 0-10.98-5.371-13.32-11.156h-.19v9.937h-6.4c.41-3.742.41-5.871.41-11.566zm60.49 51.789h-11.78v14.731l-6.4-2.235v-12.496h-10.15v-5.472h10.15v-30.278c0-9.449.41-17.265 11.78-17.265 3.15 0 6.3.816 7.82 1.425l-.4 5.27c-1.83-.707-3.45-1.211-5.9-1.211-5.18 0-6.9 3.856-6.9 8.527v33.532h11.78zm47.06-43.675c-3.04-1.926-9.85-3.856-14.52-3.856-11.19 0-17.07 8.836-17.07 19.816h35.44v3.239c0 13.922-5.99 25.695-20.61 25.695-13.11 0-21.84-11.266-21.84-27.113 0-15.543 6.39-27.121 23.57-27.121 4.77 0 10.56 1.015 15.03 2.847zm-31.59 21.425c0 8.539 5.78 18 15.24 18 9.54 0 13.2-8.945 13.2-18zm90.65 46.637h-6.4v-33.113h-.19c-.92 2.547-6 9.945-16.16 9.945-15.25 0-21.33-11.367-21.33-27.113 0-15.348 7.1-27.121 21.33-27.121 7.41 0 12.7 2.847 16.16 9.437h.19v-8.211h6.4zm-37.08-50.281c0 10.062 3.15 21.644 15.34 21.644 11.38 0 15.34-12.191 15.34-21.644 0-9.446-3.96-21.637-15.34-21.637-12.19 0-15.34 11.582-15.34 21.637m112.72 25.894h-6.4v-28.64c0-8.645-3.66-18.891-15.34-18.891-8.84 0-12.3 6.289-12.3 16.043v31.488h-6.38v-33.113c0-11.379 4.86-19.902 17.67-19.902 10.76 0 14.62 5.777 16.76 10.453h.2v-9.227h6.19c-.4 4.164-.4 8.223-.4 12.184zm12.59-50.578c4.56-1.832 9.54-2.437 14.52-2.437 7.83 0 18.08 3.754 18.08 14.715 0 16.972-25.5 15.757-25.5 25.406 0 6.617 4.58 8.644 11.18 8.644 3.56 0 8.13-.918 11.47-2.437l.61 5.582c-4.55 1.719-10.04 2.324-12.79 2.324-8.54 0-16.86-3.848-16.86-14.113 0-15.028 24.89-13.102 24.89-25.406 0-5.883-5.39-9.231-11.49-9.231-4.98 0-9.65 1.309-13.5 3.25zm45.31-1.211h6.38v51.789h-6.38zm6.38 74.137h-6.38v-8.523h6.38zm17.12-74.137h6.38v28.649c0 8.625 3.67 18.89 15.36 18.89 8.84 0 12.29-6.297 12.29-16.05v-31.489h6.39v33.11c0 11.379-4.87 19.898-17.67 19.898-10.78 0-14.63-5.777-16.78-10.449h-.19v9.23h-6.18c.4-4.164.4-8.226.4-12.183zm61.71 25.895c0 10.062 3.16 21.644 15.34 21.644 11.7 0 15.35-9.144 15.35-21.644 0-9.446-4.16-20.426-15.75-20.426-10.87 0-14.94 10.258-14.94 20.426m37.08 25.894h-6.39v-5.883h-.2c-4.78 6.2-9.25 7.102-16.16 7.102-15.25 0-21.33-11.367-21.33-27.113 0-11.489 5.28-25.895 21.84-25.895 6.61 0 12.29 2.637 15.75 10.141h.2c0-14.613-1.42-26.617-17.88-26.617-5.59 0-11.28 1.632-15.25 3.672l-.5-6.407c2.65-.804 8.83-2.738 15.64-2.738 17.79 0 24.28 11.777 24.28 26.207zm34.62-73.129h6.37v30.157h.21c3.16-6.688 8.03-10.043 16.16-10.043 14.23 0 21.32 11.773 21.32 27.121 0 15.746-6.08 27.113-21.32 27.113-10.98 0-14.95-7.805-16.57-10.648h-.2l.4 9.429h-6.37zm37.07 47.235c0-10.055-3.15-21.637-15.35-21.637-11.38 0-15.35 12.191-15.35 21.637 0 9.453 3.97 21.644 15.35 21.644 12.2 0 15.35-11.582 15.35-21.644m61.85 25.894h-6.39v-28.64c0-8.645-3.65-18.891-15.34-18.891-8.85 0-12.3 6.289-12.3 16.043v31.488h-6.39v-33.113c0-11.379 4.87-19.902 17.67-19.902 10.77 0 14.63 5.777 16.77 10.453h.2v-9.227h6.19c-.41 4.164-.41 8.223-.41 12.184zm16.82-51.789h6.39v8.211h.2c3.47-6.59 8.74-9.437 16.16-9.437 14.23 0 21.33 11.773 21.33 27.121 0 15.746-6.09 27.113-21.33 27.113-10.17 0-15.24-7.398-16.16-9.945h-.2v33.113h-6.39zm37.07 25.895c0-10.055-3.14-21.637-15.34-21.637-11.38 0-15.34 12.191-15.34 21.637 0 9.453 3.67 21.644 15.34 21.644 12.2 0 15.34-11.582 15.34-21.644m21.65-25.895h6.4v76.176h-6.4zm23.49 0h6.38v51.789h-6.38zm6.39 74.137h-6.39v-8.523h6.39zm51.99-23.148c-1.84.609-6.3 2.019-12.51 2.019-15.32 0-25.58-11.156-25.58-27.113 0-14.43 8.11-27.121 24.78-27.121 4.86 0 8.93.312 13.31 1.832l-.62 5.984c-3.85-1.422-7.62-2.332-11.68-2.332-11.69 0-18.8 9.848-18.8 21.637 0 12.594 7.02 21.644 19.5 21.644 3.46 0 7.63-1.113 11.08-2.648zm35.01-50.989h6.38v46.317h11.68v5.472h-11.68v4.481c0 6.195-.91 15.652 7.84 15.652 1.82 0 3.75-.41 5.07-1.129l.41 5.582c-1.24.719-3.97 1.012-6 1.012-13.3 0-13.7-10.957-13.7-21.832v-3.766h-10.47v-5.472h10.47zm70.79 51.789h-6.4v-28.64c0-8.645-3.64-18.891-15.34-18.891-8.84 0-12.28 6.289-12.28 16.043v31.488h-6.4v-33.113c0-11.379 4.87-19.902 17.67-19.902 10.78 0 14.63 5.777 16.76 10.453h.21v-9.227h6.19c-.41 4.164-.41 8.223-.41 12.184zm17.21-51.789h6.38v28.649c0 8.625 3.66 18.89 15.35 18.89 8.84 0 12.29-6.297 12.29-16.05v-31.489h6.4v33.11c0 11.379-4.88 19.898-17.67 19.898-10.77 0-14.64-5.777-16.77-10.449h-.2v9.23h-6.19c.41-4.164.41-8.226.41-12.183zm98.92 76.176h-6.37v-33.113h-.21c-.92 2.547-6 9.945-16.16 9.945-15.25 0-21.32-11.367-21.32-27.113 0-15.348 7.1-27.121 21.32-27.121 7.42 0 12.7 2.847 16.16 9.437h.21v-8.211h6.37zm-37.07-50.281c0 10.062 3.15 21.644 15.34 21.644 11.38 0 15.36-12.191 15.36-21.644 0-9.446-3.98-21.637-15.36-21.637-12.19 0-15.34 11.582-15.34 21.637m53.85-25.895h6.38v51.789h-6.38zm6.39 74.137h-6.39v-8.523h6.39zm17.11-74.137h6.4v28.649c0 8.625 3.64 18.89 15.34 18.89 8.83 0 12.31-6.297 12.31-16.05v-31.489h6.37v33.11c0 11.379-4.86 19.898-17.66 19.898-10.78 0-14.64-5.777-16.77-10.449h-.2v9.23h-6.19c.4-4.164.4-8.226.4-12.183zm61.71 25.895c0 10.062 3.17 21.644 15.36 21.644 11.68 0 15.33-9.144 15.33-21.644 0-9.446-4.16-20.426-15.74-20.426-10.88 0-14.95 10.258-14.95 20.426m37.07 25.894h-6.38v-5.883h-.2c-4.78 6.2-9.26 7.102-16.17 7.102-15.21 0-21.31-11.367-21.31-27.113 0-11.489 5.28-25.895 21.82-25.895 6.6 0 12.3 2.637 15.76 10.141h.2c0-14.613-1.43-26.617-17.88-26.617-5.6 0-11.27 1.632-15.23 3.672l-.51-6.407c2.64-.804 8.85-2.738 15.65-2.738 17.77 0 24.25 11.777 24.25 26.207zm34.61-51.789h6.39v8.211h.22c3.45-6.59 8.73-9.437 16.15-9.437 14.24 0 21.33 11.773 21.33 27.121 0 15.746-6.1 27.113-21.33 27.113-10.16 0-15.26-7.398-16.15-9.945h-.22v33.113h-6.39zm37.09 25.895c0-10.055-3.14-21.637-15.35-21.637-11.38 0-15.35 12.191-15.35 21.637 0 9.453 3.67 21.644 15.35 21.644 12.21 0 15.35-11.582 15.35-21.644m20.84 25.894h-7.01l18.36-52.414-1.31-4.578c-2.03-6.695-3.85-11.273-9.35-11.273-2.33 0-3.56.41-4.75.816l-.62-5.473a30.81 30.81 0 0 1 6.91-.816c7.21 0 10.86 7.105 13.3 14.215l20.7 59.523h-6.7l-14.92-43.168h-.09l-14.52 43.168M192.262 428.547l.547-16.516-30.321 7.746-.043.164zm28.047 8.715-.602 17.347-71.445-25.632.718-18.75 73.04-21.524-.61 16.414-16.265 4.524-.825 22.535 15.989 5.086m-48.856 71.383 1.606 4.96c2.796 8.614 8.914 7.625 11.754 6.723 4.96-1.566 8.058-6.187 6.07-12.402l-1.711-4.988zm52.11-34.094 5.242 16.191-27.774 9.004c1.879 5.902 2.602 8.055 12.856 7.672l20.144-.637 5.473 16.938-24.719.179c-9.082.075-12.426-.996-14.656-5.757l-.211.043c1.664 14.152-9.559 18.179-12.406 19.132-12.731 4.106-20.774-3.882-24.461-15.265l-8.266-25.121 68.778-22.379m29.972 71.308 9.77 13.903-48.496 33.984 8.98 12.82-10.687 7.473-27.813-39.652 10.688-7.489 9.05 12.915 48.508-33.954m14.031 117.457c-5.613-2.988-9.57-4.75-14.597-9.027-18.535-15.531-7.387-30.211-5.918-31.867 16.519-19.82 33.945 3.746 42.965-6.918 3.773-4.524 1.543-9.945-2.582-13.395-4.868-4.117-9.813-5.05-15.051-6.769l8.359-11.418c2.973 1.289 10.164 4.59 16.863 10.234 11.051 9.27 14.055 22.574 5.227 33.063-16.477 19.652-34.348-3.332-42.848 6.754-3.425 4.113-1.882 8.703 2.356 12.199 3.476 2.961 8.93 5.332 13.305 6.348l-8.079 10.796m130.789 51.696c-2.96.535-8.808 1.609-19.328-.86-14.304-3.32-29.3-17.574-23.308-43.39 5.172-22.328 21.996-33.614 41.277-29.164 8.977 2.09 14.434 5.062 17.027 6.605l-4.011 14.613c-1.438-1.113-5.465-5.242-13.532-7.089-10.511-2.446-20.601 5.031-23.769 18.722-3.332 14.192 1.687 24.864 12.703 27.422 7.613 1.754 12.508.078 15.356-.719l-2.415 13.86m55.356-32.418c1.75 13.734 6.519 24.554 16.23 23.379 9.793-1.215 11.907-12.828 10.215-26.586-1.711-13.778-6.578-24.574-16.301-23.348-9.777 1.176-11.812 12.789-10.144 26.555m-17.266 2.16c-2.562-21.098 5.239-38.316 25.899-40.856 20.644-2.558 32.457 12.231 35.054 33.329 2.614 21.089-5.257 38.343-25.98 40.832-20.621 2.617-32.363-12.223-34.973-33.305m85.133-25.262c-8.086-15.937-3.281-29.051 11.172-36.476 14.551-7.352 27.973-3.567 36.082 12.422l20.938 41.035-15.086 7.715-22.258-43.415c-3.238-6.492-7.641-9.222-13.676-6.132-6.129 3.113-6.516 8.308-3.184 14.797l22.075 43.429-15.028 7.699-21.035-41.074m52.594-59.105 10.269-10.727 37.75 36.297.145-.16-23.231-51.231 14.004-14.449 51.965 50.168-10.457 10.762-35.941-34.84-.145.16 21.379 49.903-13.722 14.363-52.016-50.246m133.555-70.563c-.168 3.071-.418 9.055-5.211 18.711-6.446 13.219-23.743 24.606-47.578 12.969-20.602-10.008-27.774-28.934-19.161-46.75 4.071-8.27 8.207-12.961 10.332-15.149l13.246 7.165c-1.363 1.132-6.203 4.179-9.812 11.683-4.762 9.617.223 21.211 12.766 27.383 13.16 6.402 24.629 3.828 29.629-6.348 3.433-6.965 2.906-12.09 2.714-15.058l13.075 5.394m-58.176-54.672 2.965-16.683 71.097 12.508-2.929 16.644-71.133-12.469m4.98-42.789-2.789-40.73 13.047-1.008 1.637 23.84 59.078-4.133 1.184 17.102-72.157 4.929M213.004 263.664l20.449-24.289 4.574 4.016-16.332 19.226 21.914 18.438 14.864-17.832 4.558 3.984-14.832 17.805 19.711 16.59 15.551-18.711 4.625 3.957-19.711 23.457-55.371-46.641m51.336-53.691 4.984-3.262 35.649 52.969.172-.117-10.477-69.864 6.836-4.765 40.406 60.058-4.984 3.281-35.93-53.371-.172.118 10.762 70.246-6.844 4.765-40.402-60.058m111.894-18.614 12.411-3.586-6.93-24.363c-3.629-.762-6.582-.324-10.16.574-18.348 5.118-19.27 23.965-15.625 36.653 6.316 21.875 21.8 25.742 31.691 22.801 5.309-1.543 11.309-5.497 13.363-8.465l2.301 6.629c-1.769 1.718-8.055 5.996-13.672 7.656-19.457 5.519-34.949-8.348-40.066-26.094-3.762-13.23-4.367-37.898 19.996-44.91 5.738-1.652 11.34-2.18 17.141-.813l9.796 34.348-18.593 5.215-1.653-5.645m52.457-40.519h29.926l-.012 5.91h-23.511v66.277h-6.403V150.84m67.493 73.644.183.028 22.731-34.434-24.008-7.129zm-8.172-70.5 6.113 1.797.801 21.125 27.726 7.762 11.532-17.391 6.543 1.856-43.032 63.055-6.543-1.942-3.14-76.262m83.605 30.684 5.028 3.398-34.668 53.489.164.086 60.218-36.903 6.899 4.278-39.336 60.839-5.082-3.429 34.949-53.836-.215-.09-60.277 37.285-7-4.305 39.32-60.812m25.281 104.211 3.352 4.129c14.832 19.269 30.801 9.18 39.773 1.992 14.239-11.094 18.239-25.437 8.36-38.086l-4.086-5.351zm48.215-45.871 6.899 8.644c14.277 18.496 7.875 36.59-8.688 49.539-18.367 14.407-34.597 12.657-49.347-6.336l-5.872-7.343 57.008-44.504m236.571-93.77h-7.481v569.875h7.481V149.238" style="fill:#231f20;fill-opacity:1;fill-rule:nonzero;stroke:none" transform="matrix(.13333 0 0 -.13333 0 115.413)"/>
</svg>
