<svg xmlns="http://www.w3.org/2000/svg" width="120" height="42" version="1.0">
  <path fill="#aab2ab" d="m3.4093073.4458894 113.353184.2018341c1.5838253 0 2.9987888-.2353208 2.9987888 3.1600482l-.1387803 37.3290766H.5483248V3.6690058c0-1.673906.1620745-3.2231164 2.8609825-3.2231164z"/>
  <path d="M117.7533523 0H2.2476465C1.0083423 0 .0000107 1.0082269.0000107 2.2469155v39.246064c0 .2799564.227097.5070199.5075595.5070199h118.9848845c.2804725 0 .5075595-.2270734.5075595-.50702V2.2469156C120.0000142 1.008227 118.9916826 0 117.7533522 0zM2.2476465 1.0150136h115.5057058c.6793331 0 1.2315428.5526294 1.2315428 1.231902v27.2143248H36.4289688c-3.0259587 5.4705188-8.8566125 9.185134-15.5471084 9.185134-6.6924436 0-12.5211497-3.7112168-15.5451705-9.185134H1.0151397V2.2469155c-.00001-.6792626.5531638-1.2319019 1.2325068-1.2319019z"/>
  <path fill="#fff" d="M34.522907 19.5449215c.0048754 7.5291974-6.09659 13.6362744-13.6265173 13.6416176-7.5299793.004337-13.6381677-6.095905-13.6430343-13.6251024v-.0165152C7.24848 12.0147701 13.3498935 5.907693 20.8798728 5.903304c7.5309335-.004337 13.639174 6.095957 13.6430343 13.6251544v.0164631z"/>
  <path d="M31.9725181 8.4403652c3.0230122 3.0232274 4.5350215 6.7252261 4.5350215 11.1045563 0 4.3798073-1.4858025 8.042036-4.4574076 10.9881347-3.1540545 3.101796-6.880736 4.6524555-11.1818922 4.6524555-4.2487427 0-7.9113518-1.5375271-10.9858319-4.6141254-3.0764406-3.075644-4.6136503-6.750953-4.6136503-11.0264648 0-4.2749825 1.5372097-7.9764955 4.6136503-11.1045563 2.9968576-3.0246586 6.6594232-4.5360338 10.9858319-4.5360338 4.379785 0 8.0802598 1.5113752 11.1042783 4.5360338zm-20.0550334 2.0334342c-2.5562358 2.5816973-3.8343711 5.6058789-3.8343711 9.0750341 0 3.468097 1.2655394 6.4666037 3.7946142 8.9958843 2.5310267 2.5292806 5.5423973 3.7941681 9.0371133 3.7941681 3.494716 0 6.5322933-1.277482 9.1147358-3.8329754 2.4514523-2.373054 3.6771741-5.3579513 3.6771741-8.9570857 0-3.5719675-1.2461077-6.6039383-3.7373255-9.0944117-2.4902636-2.490005-5.5084526-3.7355062-9.0545844-3.7355062-3.5461318 0-6.5468584 1.2518159-8.9973564 3.7548925zm6.726393 7.549104c-.3901167-.851513-.9743332-1.277057-1.7546101-1.277057-1.3780522 0-2.0671043.9276963-2.0671043 2.783089 0 1.8558178.6890521 2.7830371 2.0671043 2.7830371.9103216 0 1.5605624-.451696 1.9506792-1.3570482l1.9108615 1.0174283c-.9112758 1.6181082-2.2777297 2.4278995-4.0993184 2.4278995-1.4052131 0-2.5309746-.4308958-3.3762782-1.292089-.8462491-.861679-1.2694084-2.0494203-1.2694084-3.5632329 0-1.4880856.4367094-2.6690006 1.3082197-3.5438032.8715103-.8748026 1.9584605-1.3114667 3.2598444-1.3114667 1.9264242 0 3.3044851.7583375 4.1390839 2.2745788l-2.0690735 1.0586643zm8.9905814 0c-.391123-.851513-.9646955-1.277057-1.7197199-1.277057-1.4062194 0-2.1098366.9276963-2.1098366 2.783089 0 1.8558178.7036172 2.7830371 2.1098366 2.7830371.912282 0 1.5508206-.451696 1.9147826-1.3570482l1.9535852 1.0174283c-.9093673 1.6181082-2.2738694 2.4278995-4.0925433 2.4278995-1.4033134 0-2.5261601-.4308958-3.371455-1.292089-.843343-.861679-1.2664416-2.0494203-1.2664416-3.5632329 0-1.4880856.428928-2.6690006 1.2868275-3.5438032.8569452-.8748026 1.9477644-1.3114667 3.2734552-1.3114667 1.922512 0 3.2996099.7583375 4.1303484 2.2745788l-2.108839 1.0586643z"/>
  <path fill="#fff" d="M48.0931783 32.747425c.3154036 0 .6046114.0281407.8647016.0834484.2600902.0553076.4823276.1465265.66866.2736467.1853585.1261463.3289885.2950006.4318639.5045953.1019014.2105685.1533391.4696679.1533391.7792159 0 .3338133-.0756957.6113353-.228061.8335596-.1513913.2231881-.3755765.404652-.6735096.5472933.4095438.117412.7152481.3231414.9171033.6171583.2018551.2940169.3027926.6482104.3027926 1.0625706 0 .3338134-.0650225.6229812-.1950677.8675233-.130045.2435682-.3057043.4434648-.52503.5977518-.2202996.155261-.4716545.2697615-.753091.3435116-.2824103.074724-.571618.1115891-.8695512.1115891h-3.2161767v-6.6218738h3.1220267v.00001zm-.1853684 2.6782576c.2591163 0 .4735923-.0621044.6405163-.1853393.166924-.1232349.2503811-.3231413.2503811-.6006633 0-.1542871-.0281436-.2814073-.083457-.3794228-.0562873-.0989795-.1300451-.175641-.2232113-.2319225-.0931662-.0553077-.1999173-.0941303-.3202632-.1154744-.1203459-.021344-.2465053-.032026-.3765505-.032026h-1.3644997v1.5448483h1.4770843zm.0844408 2.8102168c.1426561 0 .2785247-.0135834.4085698-.0417242.1300452-.0281407.2445576-.0747239.3445212-.138766.0989897-.0650157.1775971-.1533231.2367962-.2649122.059199-.1106253.0883166-.2532665.0883166-.4259961 0-.3396363-.096078-.5822308-.2882339-.7277835-.1921559-.1445889-.4454487-.2173652-.7618262-.2173652h-1.589649v1.8165472h1.5615053zm2.794986-5.4884744h1.6333153l1.5508322 2.6151794 1.541123-2.6151794h1.623616l-2.4582262 4.0804545v2.5414293h-1.4596038v-2.5783043l-2.4310565-4.0435795zm21.7300448 0 2.7668423 4.4423987h.0155228V32.747425h1.3664376v6.6218739h-1.456692l-2.7561693-4.4336644h-.0184345v4.4336644h-1.3664376V32.747425h1.4489307zm9.6776378 1.764161c-.0863688-.1397298-.1950677-.2620008-.3251128-.3668032-.1300451-.1048023-.2765869-.1872868-.4405991-.245506-.1640123-.0591928-.335786-.0883073-.514357-.0883073-.3280245 0-.6065492.0630781-.835584.1901983-.2290348.1261463-.4143933.2959645-.5560854.5094544-.1426561.21348-.2465054.4560744-.311528.7277835-.0650225.271709-.0970518.5531162-.0970518.8432578 0 .2784958.0320293.549231.0970519.8112418.0650225.2629746.1688618.4997462.3115279.709351.141692.2105684.3270506.378449.5560854.505569.2290348.1271202.5075595.1901984.835584.1901984.4444848 0 .7928817-.1358545 1.0432627-.4085274.250381-.271709.4037202-.6307517.4590336-1.0761541h1.410114c-.036879.4143503-.132957.788924-.28726 1.1227274-.1543031.3347772-.35908.6191058-.6123728.8549036-.2532928.2357978-.5502619.415324-.8908974.5395328-.3396715.1242087-.7142742.186313-1.12188.186313-.5075596 0-.9636913-.0883074-1.3693494-.2649123-.4046941-.175641-.7472675-.4192093-1.0258021-.7277835-.2794986-.309548-.4930007-.6734397-.6414903-1.0907113-.1484796-.4182356-.2232113-.8675233-.2232113-1.3507746 0-.4948972.0747317-.953883.2232113-1.3779415.1484796-.4240585.3619917-.7937731.6414903-1.109144.2785247-.3153708.621108-.5628244 1.0258021-.7423407.405658-.1795164.8617898-.2687976 1.3693494-.2687976.3649034 0 .7094245.0523962 1.0345373.1581724.3241389.1048023.6152845.2581255.871489.4599597.2571785.2008703.4687428.4502515.6356668.7471898.166924.2969383.2717373.6375384.3154037 1.0208366h-1.410114c-.024258-.1669067-.0805452-.32023-.166914-.458986zm16.160455-1.764161 2.7668423 4.4423987h.0155228V32.747425h1.3664376v6.6218739h-1.456692l-2.7561693-4.4336644h-.0184345v4.4336644h-1.3664376V32.747425h1.4489307zm8.2849944 0c.4279782 0 .8249109.0679273 1.19369.2037818.3687792.1358545.6871045.3406001.956894.6123091.2688254.271709.4794158.6123092.630817 1.0198727.1523653.4085274.228061.8878935.228061 1.4381082 0 .4822775-.0621108.9267161-.1853585 1.3352435-.1242216.4075635-.3115279.7607733-.561909 1.0567478-.2513549.2969383-.5638468.5307984-.9384593.7006165-.3746126.1698182-.8152018.2552141-1.3237352.2552141H103.78036V32.747445h2.8600086v-.0000199zm-.1019015 5.395318c.2105904 0 .4143933-.0339637.6123727-.101891.1979795-.0679272.3746027-.1804901.5289157-.3386624.1543031-.1571986.2785247-.3619541.371691-.6152206.0921922-.2532665.1387803-.5628244.1387803-.9267162 0-.3338133-.0320293-.634627-.0970518-.9034245-.0650226-.2687976-.1717737-.4987725-.3202632-.6899446-.1484895-.191172-.3445212-.3386624-.5890787-.4405533-.2445575-.1018909-.5463763-.1523494-.9044923-.1523494h-1.039387v4.168752h1.2985133v.00001zM87.8014055 14.9812318c.0048323 5.5005868-4.4516034 9.9619157-9.9532515 9.966303-5.5007136.003373-9.9629845-4.4521098-9.966848-9.9517622v-.0145408c-.0038977-5.5010768 4.4525722-9.9624056 9.9532516-9.9667815 5.5006794-.0034073 9.9629502 4.4521098 9.966848 9.951728v.0150535z"/>
  <path d="M77.8258162 3.386164c3.252067 0 5.9994948 1.1207822 8.244255 3.3618566 2.2447148 2.2420885 3.3675623 4.9868038 3.3675623 8.2331998 0 3.2459175-1.1034387 5.9615169-3.3093473 8.145841-2.3417927 2.2998188-5.1096094 3.4487368-8.30247 3.4487368-3.1531085 0-5.8723748-1.140189-8.1559412-3.420601-2.2835322-2.2793978-3.4248197-5.0047063-3.4248197-8.1739768 0-3.1697605 1.141276-5.9144643 3.4248197-8.2331998 2.2253174-2.2410744 4.9446179-3.3618565 8.1559412-3.3618565zm-8.9720892 8.4796644c-.3455055.9786104-.5192043 2.016911-.5192043 3.1154034 0 2.5700318.9394159 4.791745 2.816333 6.666997 1.8768828 1.8738049 4.111933 2.8111745 6.705048 2.8111745 2.592135 0 4.8465598-.9465887 6.7622944-2.8407689.641492-.61958 1.170429-1.2954657 1.5847941-2.0281016l-4.3720196-1.9460986c-.295975 1.470605-1.6070976 2.4637903-3.190923 2.5802536v1.7879046h-1.331523v-1.7879046c-1.3014125-.014575-2.558161-.5468303-3.5199032-1.3881463l1.5973876-1.610338c.7686461.7239068 1.5382268 1.048477 2.5882828 1.048477.680298 0 1.4343791-.2658713 1.4343791-1.1523253 0-.3138924-.121319-.5322553-.3125004-.696717l-1.106322-.4910145-1.3761529-.6137682c-.6812782-.3037389-1.2587315-.5594224-1.8371308-.8175333l-5.9228398-2.6374938zm9.0021768-6.3928867c-2.6329013 0-4.8572728.9272161-6.6769095 2.7830729-.4949632.4997436-.9258536 1.0213212-1.2907337 1.5662028l4.4321947 1.9737559c.4008028-1.2299865 1.5692489-1.9761832 2.9880827-2.058676v-1.787939h1.331523v1.7879388c.9170895.0441695 1.9225156.2954657 2.9133653 1.063052L80.029776 12.366552c-.561908-.3988581-1.271325-.679293-1.9817107-.679293-.5764846 0-1.3907293.1766322-1.3907293.901029 0 .1101387.0378716.207161.1048278.2944857l1.4828953.6588834 1.0034773.4473693c.641492.2867367 1.2548338.5584425 1.8613718.8286896l5.9422828 2.6452543c.196025-.7777512.2950063-1.605495.2950063-2.4817385 0-2.6476929-.928737-4.8897358-2.7862454-6.7252172-1.839034-1.8558568-4.0731155-2.783073-6.7050481-2.783073z"/>
  <path fill="#fff" d="M114.668214 14.981236c.0048508 5.8445998-4.731097 10.5868438-10.576304 10.5916941-5.8461943.0033723-10.5889246-4.7310963-10.5928314-10.577137v-.0145571c-.0038694-5.8450905 4.7310971-10.5873345 10.5772915-10.5917315 5.8452068-.0048503 10.5879434 4.7306058 10.5918439 10.5756963v.0160352z"/>
  <path d="M103.9181627 3.3861547c-3.2123076 0-5.931565 1.1197946-8.1569026 3.3618865-2.2835288 2.318697-3.4248242 5.062464-3.4248242 8.2331948 0 3.1692528 1.1412892 5.8936122 3.4248242 8.173985 2.2825847 2.2803789 5.0028296 3.4205994 8.1569026 3.4205994 3.1928982 0 5.959732-1.150387 8.3014892-3.4487263 2.2049469-2.184323 3.309355-4.899963 3.309355-8.1458643 0-3.24787-1.12283-5.9911401-3.3675834-8.2331948-2.2447098-2.2420857-4.9931218-3.3618803-8.2432608-3.3618803zm.028167 2.0858076c2.631918 0 4.8669634.9281855 6.7060122 2.7840226 1.857508 1.8354856 2.7852993 4.07659 2.7852993 6.725251 0 2.6665905-.9083756 4.8790402-2.7270709 6.6373866-1.9166867 1.8941986-4.1711416 2.8398167-6.7642405 2.8398167-2.5931363 0-4.8281445-.936408-6.705062-2.8116898-1.8769174-1.8738037-2.8153606-4.096451-2.8153606-6.6655134 0-2.571528.9481448-4.8126326 2.845422-6.7252511 1.8186953-1.855837 4.0430454-2.7840226 6.6750006-2.7840226z"/>
  <path d="M108.3134604 12.2326126h-8.4285979v1.9965768h8.428598v-1.9965768zm0 3.7267653h-8.4285979v1.9960489h8.428598v-1.996049z"/>
  <g transform="matrix(.99377 0 0 .99367 -437.11979 0)">
    <circle cx="491.9473" cy="15.31396" r="10.80615" fill="#fff"/>
    <path d="M495.07474 12.18701c0-.4165-.33789-.75342-.75391-.75342h-4.77246c-.41602 0-.75391.33691-.75391.75342v4.77295h1.33105v5.65234h3.61719v-5.65234h1.33203v-4.77295h.00001z"/>
    <circle cx="491.9346" cy="9.1723604" r="1.63232"/>
    <path fill-rule="evenodd" d="M491.91946 3.40771c-3.23145 0-5.96777 1.12744-8.20703 3.38379-2.29785 2.33301-3.44629 5.09521-3.44629 8.28418 0 3.18897 1.14844 5.93213 3.44629 8.22705 2.29785 2.29443 5.03418 3.44189 8.20703 3.44189 3.21289 0 5.99805-1.15674 8.35449-3.47168 2.21973-2.19678 3.3291-4.92969 3.3291-8.19727 0-3.26758-1.12891-6.02832-3.3877-8.28418-2.25878-2.25633-5.02342-3.38378-8.29589-3.38378zm.03028 2.09961c2.64844 0 4.89648.93359 6.74609 2.80078 1.87012 1.84717 2.80469 4.10352 2.80469 6.76758 0 2.68359-.91504 4.91113-2.74609 6.68066-1.92773 1.90576-4.19629 2.8584-6.80469 2.8584-2.61035 0-4.85938-.94287-6.74805-2.8291-1.88867-1.88672-2.83301-4.12305-2.83301-6.70996 0-2.58643.9541-4.84229 2.8623-6.76758 1.83106-1.86718 4.07032-2.80078 6.71876-2.80078z" clip-rule="evenodd"/>
  </g>
</svg>
