<svg xmlns="http://www.w3.org/2000/svg" xml:space="preserve" viewBox="0 0 638.52 792">
  <path fill="#353537" fill-rule="evenodd" d="M285.264 275.963c22.137.448 45.275 2.8 67.93 7.516.458 0 .458 0 0 .53-18.409-.53-37.265 0-56.59 3.73-32.547 8.502-58.941 23.582-78.34 49.073-14.15 18.855-26.383 45.71-25.405 72.188l-99.572-.543c-.46-5.645 2.365-12.244 3.353-18.854 7.07-23.055 17.866-37.747 32.017-53.72 25.478-26.479 48.603-39.159 83.056-50.04 24.96-6.562 49.51-8.903 73.551-9.88"/>
  <path fill="#353537" fill-rule="evenodd" d="M316.847 294.805c19.325.459 38.193.979 57.577 4.284 28.76 5.622 58.424 16.962 79.173 31.1 21.679 15.574 42.004 37.278 51.415 60.366h-80.161c-9.41-35.346-31.124-60.366-60.378-77.786-14.162-8.058-32.029-12.774-48.544-16.985-.458-.52.471-.979.918-.979M4.572 737.876c.35 11.292 3.233 20.256 7.926 26.346 4.306 5.66 10.423 8.976 16.2 8.976 10.062 0 17.975-8.976 22.306-20.725l-1.797-1.424C44.889 761.425 39.134 766.6 32.295 766.6c-12.608.941-18.735-17.432-18.735-31.076-.362-16.479 3.606-29.181 11.532-32.487 1.424-.458 2.872-.458 3.958-.458 5.753 0 11.52 3.764 19.071 15.537l1.81-.952-5.042-18.132c-1.798 1.423-3.607 1.893-5.393 1.893-3.257 0-5.778-2.352-10.446-2.834-13.33-.942-24.478 21.45-24.478 39.785m74.166 17.434v-39.1c0-10.809 1.073-13.631 7.19-13.631v-3.547H64.335v3.547c5.754 0 7.202 2.822 7.202 13.631l-.374 39.1c0 11.29-1.074 13.183-6.828 13.183v3.283H85.93v-3.283c-5.756 0-7.191-2.364-7.191-13.184m45.345-41.439v-4.26c0-3.738.724-7.031 4.32-7.031 7.563 0 13.679 7.031 17.285 16.007l2.16-.94-5.405-18.614h-43.56l-5.753 18.613 1.797.941c3.956-8.505 10.085-16.007 17.649-16.007 3.581 0 4.318 2.822 4.318 6.574v45.687c0 11.29-.737 13.654-7.926 13.654v3.283h23.39v-3.283c-7.189 0-8.275-2.364-8.275-13.654v-40.97m50.04 30.122v11.75c0 6.623 0 13.21-7.19 12.751v3.283h21.955v-3.283c-5.404 0-7.201-1.893-7.201-11.761v-16.008l12.593-30.159c2.522-6.564 5.418-8.698 9-7.986v-3.547H184.56v3.547h1.434c3.246 0 4.694 1.422 4.694 4.235 0 1.4-.363 3.267-1.087 5.645l-10.059 23.981-11.184-25.875c-1.073-1.882-1.422-3.751-1.797-4.693.375-2.835 2.521-3.293 6.852-3.293v-3.547h-22.33v3.547c3.246 0 5.767.929 9 8.938l14.042 32.475m67.687-6.116c.35 11.292 3.232 20.256 7.913 26.346 4.319 5.66 10.435 8.976 16.214 8.976 10.061 0 17.974-8.976 22.305-20.725l-1.797-1.424c-4.331 10.376-10.086 15.551-16.926 15.551-12.594.941-18.722-17.432-18.722-31.076-.363-16.479 3.606-29.181 11.52-32.487 1.448-.458 2.884-.458 3.969-.458 5.755 0 11.521 3.764 19.073 15.537l1.81-.952-5.055-18.132c-1.797 1.423-3.595 1.893-5.405 1.893-3.222 0-5.754-2.352-10.423-2.834-13.317-.942-24.476 21.45-24.476 39.785m86.036 32.005c-11.521 0-16.213-16.938-16.213-34.357-.35-13.185 2.894-34.152 16.213-34.152 10.808 0 15.477 17.214 15.477 34.152-.361 16.95-3.968 33.428-15.477 34.357zm0 3.317c15.477-.47 24.115-17.455 24.115-37.674 0-20.267-9.723-37.904-24.488-37.433-14.755.482-24.478 16.695-24.478 37.433 0 20.724 9.723 38.616 24.851 37.674m81.536-29.206c0 12.256-1.447 24.96-13.667 24.96-12.257 0-14.041-11.787-14.041-24.96V716.21c0-10.809.71-13.173 7.164-13.631v-3.547h-21.207v3.547c5.743 0 6.479 2.34 6.479 13.631v32.958c0 16.008 7.913 24.501 19.072 24.501 13.667 0 19.808-9.447 19.808-26.384V716.21c0-10.809.712-13.631 7.01-13.631v-3.547h-17.458v3.547c6.116 0 6.84 2.822 6.84 13.631v27.782m35.817-44.96h-12.944v3.547c6.091 0 7.19 2.822 7.19 13.631v38.629c0 10.82-1.099 13.654-7.19 13.654v3.283h17.648v-3.283c-6.14 0-6.852-2.834-6.852-13.654v-43.322l32.391 60.259h2.884V716.21c0-10.809.712-13.631 7.01-13.631v-3.547h-17.82v3.547c6.13 0 7.19 2.822 7.19 13.631v37.204l-29.507-54.382m54.189 38.844c.326 11.292 3.234 20.256 7.89 26.346 4.343 5.66 10.447 8.976 16.237 8.976 10.05 0 17.975-8.976 22.294-20.725l-1.798-1.424c-4.32 10.376-10.073 15.551-16.901 15.551-12.619.941-18.735-17.432-18.735-31.076-.349-16.479 3.62-29.181 11.534-32.487 1.434-.458 2.846-.458 3.968-.458 5.742 0 11.508 3.764 19.072 15.537l1.786-.952-5.044-18.132c-1.785 1.423-3.594 1.893-5.404 1.893-3.22 0-5.754-2.352-10.41-2.834-13.355-.942-24.488 21.45-24.488 39.785m74.141 17.434v-39.1c0-10.809 1.085-13.631 7.19-13.631v-3.547h-21.58v3.547c5.753 0 7.213 2.822 7.213 13.631l-.362 39.1c0 11.29-1.098 13.183-6.852 13.183v3.283h21.58v-3.283c-5.754 0-7.189-2.364-7.189-13.184m62.658-2.836c-5.042 10.832-9.723 16.02-19.446 16.02-7.903 0-8.288-2.834-8.288-11.761V716.21c0-10.809.723-13.631 7.19-13.631v-3.547h-21.967v3.547c6.501 0 7.237 2.822 7.237 13.631v38.629c0 11.29-1.097 13.654-7.237 13.654v3.283h39.253l5.055-18.362-1.798-.94M53.272 659.67c-3.825 2.386-7.647 3.811-12.365 3.811-8.227 0-16.479-6.406-15.297-20.81.881-13.451 7.95-18.903 15.297-18.903 4.718 0 9.422 1.881 12.365 4.957V607.47c-4.705-1.412-9.421-1.893-14.127-1.893C18.542 605.576 0 618.568 0 644.566c0 26.2 19.434 37.77 37.674 37.77 5.585 0 10.893-.7 15.598-2.836v-19.83m39.448-4.018 5.597-31.173h.59l4.114 31.173zm40.907 25.284-19.133-74.177H83.89l-22.377 74.177h25.911l2.063-9.457h16.77l2.062 9.457h25.309m100.68 0-8.83-74.177H194.27l-7.951 39.458h-.58l-7.068-39.458h-31.21l-10.88 74.177h27.082l2.352-46.54h.29l8.554 46.54h20.29l10.314-46.54h.58l2.364 46.54h25.9m34.443-45.357v-13.006c5.006 0 11.194 1.666 11.194 6.852 0 3.776-3.836 6.394-11.195 6.154zm0 15.114c5.886 0 12.063 1.882 12.063 7.564 0 4.016-4.126 7.094-12.064 6.37zm-25.02 30.243h33.258c13.259 0 29.436-4.957 29.436-21.267 0-8.746-5.887-16.274-18.832-16.998 10.29 0 17.95-5.911 16.78-16.31 0-7.553-5.017-19.602-30.905-19.602H243.73v74.177m99.777-40.148v-18.215c7.081-.229 11.205 3.571 11.205 9.216 0 5.2-3.847 9.7-11.205 8.999zm-25.008 40.148h25.008v-30.725l13.534 30.725h26.818l-18.264-30.955c10.302-3.076 14.729-10.628 14.138-20.085-.59-14.875-10.025-23.137-37.385-23.137h-23.85v74.177"/>
  <path fill="#353537" d="M392.677 680.936h25.02v-74.177h-25.02Z"/>
  <path fill="#353537" fill-rule="evenodd" d="M457.445 662.745V625.19c8.807-.71 12.944 9.207 12.944 19.147 0 9.65-4.692 19.579-12.944 18.41zm-25.018 18.191h23.534c20.327 0 40.919-8.733 40.051-38.965-.59-21.51-15.621-35.212-43.296-35.212h-20.29v74.177m107.437-27.166h9.421c0 6.611-4.125 10.615-8.83 10.615-3.837 0-7.66-2.81-8.553-8.022-.602-4.247-.881-8.722-1.472-12.968.591-7.106 1.786-13.499 3.234-16.082 2.364-3.074 4.716-4.257 7.093-4.257 4.693 0 7.925 4.5 7.925 8.047l24.152-7.335c-5.296-11.352-18.253-18.435-32.378-18.435-17.662 0-35.044 11.342-35.044 39.232 0 26.202 16.514 38.736 38.264 37.771 20.326-.7 32.089-13.197 31.221-44.165h-35.033v15.598m46.505 27.167h46.228v-17.455h-21.197v-11.365h19.133v-17.25h-19.133V624.24h21.197V606.3h-46.228v74.636"/>
  <path fill="none" stroke="#353537" stroke-miterlimit="2.613" stroke-width="6.237" d="M428.13 461.307h37.3"/>
  <path fill="none" stroke="#353537" stroke-miterlimit="2.613" stroke-width="5.62" d="M470.57 461.777h44.346m-96.219 6.635h63.671m6.141 0h42.004m-104.722 6.587H510.2m-95.7 7.082h90.512"/>
  <path fill="none" stroke="#353537" stroke-miterlimit="2.613" stroke-width="6.213" d="M457.868 488.185h9.433"/>
  <path fill="none" stroke="#353537" stroke-miterlimit="2.613" stroke-width="6.139" d="M472.924 487.715h33.053"/>
  <path fill="none" stroke="#353537" stroke-miterlimit="2.613" stroke-width="6.213" d="M510.67 488.185h5.694"/>
  <path fill="none" stroke="#353537" stroke-miterlimit="2.613" stroke-width="5.62" d="M400.82 494.313h51.86"/>
  <path fill="none" stroke="#353537" stroke-miterlimit="2.613" stroke-width="6.262" d="M458.773 493.843h40.099"/>
  <path fill="none" stroke="#353537" stroke-miterlimit="2.613" stroke-width="5.62" d="M389.035 500.937h57.952"/>
  <path fill="none" stroke="#353537" stroke-miterlimit="2.613" stroke-width="6.176" d="M451.268 500.937h33.477"/>
  <path fill="none" stroke="#353537" stroke-miterlimit="2.613" stroke-width="5.62" d="M393.28 507.499h68.847m-83.528 7.057h54.78"/>
  <path fill="none" stroke="#353537" stroke-miterlimit="2.613" stroke-width="6.188" d="M438.084 514.556h13.62"/>
  <path fill="none" stroke="#353537" stroke-miterlimit="2.613" stroke-width="6.213" d="M456.95 514.556h15.974"/>
  <path fill="none" stroke="#353537" stroke-miterlimit="2.613" stroke-width="6.188" d="M478.17 514.556h5.634"/>
  <path fill="none" stroke="#353537" stroke-miterlimit="2.613" stroke-width="5.62" d="M371.072 521.179h81.608"/>
  <path fill="none" stroke="#353537" stroke-miterlimit="2.613" stroke-width="6.225" d="M352.675 527.79h21.749"/>
  <path fill="none" stroke="#353537" stroke-miterlimit="2.613" stroke-width="5.62" d="M378.599 527.79h63.694m-124.457 5.646h44.803"/>
  <path fill="none" stroke="#353537" stroke-miterlimit="2.613" stroke-width="6.213" d="M304.144 533.967h8.432"/>
  <path fill="none" stroke="#353537" stroke-miterlimit="2.613" stroke-width="5.62" d="M368.732 533.436h41.05m-72.633 7.092h43.368"/>
  <path fill="#353537" fill-rule="evenodd" d="M285.736 553.292c22.123-.459 45.26-2.823 67.916-7.081.459 0 .459-.471 0-.99-18.397.519-37.252.519-56.13-3.268-33.007-7.541-59.414-21.678-78.74-45.734-13.691-17.479-27.36-43.44-26.466-67.93l-98.04-.458c-.47 5.646 1.905 13.173 2.81 19.338 7.07 21.243 17.94 34.912 32.102 49.979 25.405 24.49 48.53 36.819 82.984 46.71 24.972 6.069 49.52 7.986 73.564 9.434"/>
  <path fill="none" stroke="#353537" stroke-miterlimit="2.613" stroke-width="1.89" d="M287.63 256.167c-1.437-5.175-7.529-5.706-8.977 0l.459 4.717h8.517zm-86.327 0c1.906-5.175 8.058-5.706 9.421 0v8.976c-3.27.458-5.176 1.374-9.421 1.821zm72.176-13.679c-1.448-5.635-7.516-6.153-8.964-.47l.458 18.866c3.33-.459 5.164-.459 8.506-.459zm-58.943-.93c1.364-5.223 7.53-6.153 8.964-.518l.459 21.22c-3.331 0-5.695.53-9.423 1.448zm47.156-8.517c-1.447-5.174-7.527-6.152-8.975 0l-.458 27.384c2.81-.518 5.174 0 9.433 0zm-34.453 0c1.448-5.174 7.528-6.152 8.976 0l.458 28.76c-3.281.459-5.646 0-9.434.988zm11.786-6.152c1.894-5.188 7.54-5.645 8.976 0v33.536c-3.282 0-4.718 0-8.976.916zm107.558-5.188h-39.628v38.724c12.714 1.376 25.489 1.835 39.628 5.622zm-206.587 0h41.51v49.075c-13.68 2.81-27.371 6.624-41.51 12.703zm167.405-63.648h40.087v59.402h-40.087zm-167.405.978h41.523v58.956h-41.523zm101.85-37.264v-7.539h.991-5.693v-2.883h4.245v-4.186h3.8v4.186h4.247v2.883h-5.235.988v7.539zm67.473-4.258h33.005v38.194h-33.005zm28.748-69.836.47 18.867 1.894-9.88 2.352 8.964v49.05h-33.464v-49.05l1.894-10.339c-1.437-5.706 2.352 10.796 2.352 10.796V47.673h24.502zM143.325 117.51h34.394v38.194h-34.394zm100.876 98.571c20.314 8.457 41.063 20.255 48.144 43.827h6.106c-1.847-7.998-7.542-17.89-11.28-22.596-12.764-12.774-27.843-22.667-42.97-27.395-15.514 4.728-30.122 12.244-42.898 26.419-5.187 3.317-14.15 21.208-14.15 32.548l6.151-1.388c.919-26.455 30.196-44.346 50.897-51.415zm.518-42.44 60.788 21.665v64.143c-3.27-9.903-7.986-22.595-15.068-29.217-11.786-10.399-26.382-20.315-46.238-26.395-19.314 5.645-33.922 14.15-44.804 25.417-6.538 7.082-12.244 14.658-14.597 25.02v-59.425zm59.425 17.42v-23.584l-2.836-1.895v-14.608l-8.963-7.069-8.976 5.163v8.529l-5.645-2.823V138.73l-8.505-5.646-9.422 4.198v9.964l-6.621-1.906v-20.303l-9.893-4.728-9.432 5.175v19.856l-6.612 1.906v-9.964l-9.434-4.198-8.444 5.646v15.574l-5.694 2.834v-8.07l-8.975-5.163-8.915 7.07v10.869l-2.364 2.364v26.853l59.87-22.595zM173.003 47.215V66.54l1.905-9.88 2.352 8.964v49.05h-33.476v-49.05l2.365-10.339c-1.448-5.706 1.894 10.796 1.894 10.796V47.673c8.916 0 16.514-.458 24.96-.458zM329.09 9.02l4.282 2.836c-1.929 3.787-3.293 5.174-3.293 9.891.916.519 4.259 4.247 4.705 4.717 2.823 5.682 3.282 5.682 4.271 19.374-8.06 0-16.528-.519-24.573 0-.46-7.068 1.446-12.763 3.81-18.396 0-.471 5.164-4.718 5.623-5.176-.905-3.354-.459-8.058-3.27-10.41l2.811-2.836 3.282-6.612zm-165.511 0 4.705 2.836c-2.353 3.787-3.728 5.174-3.728 9.891.904.519 4.187 4.247 5.175 4.717 2.353 5.682 2.812 5.682 3.728 19.374-7.999 0-16.501-.519-24.488 0-.47-7.068 1.435-12.763 3.788-18.396 0-.471 5.187-4.718 5.644-5.176-.916-3.354-.457-8.058-3.28-10.41l2.823-2.836 3.257-6.612z"/>
  <path fill="none" stroke="#353537" stroke-miterlimit="2.613" stroke-width="1.89" d="m163.58 9.021 4.705 2.836c-2.353 3.787-3.728 5.174-3.728 9.891.904.519 4.187 4.247 5.175 4.717 2.353 5.682 2.812 5.682 3.728 19.374-7.999 0-16.501-.519-24.488 0-.47-7.068 1.435-12.763 3.788-18.396 0-.471 5.187-4.718 5.644-5.176-.916-3.354-.457-8.058-3.28-10.41l2.823-2.836 3.257-6.612zm165.51 0 4.283 2.836c-1.929 3.787-3.293 5.174-3.293 9.891.916.519 4.259 4.247 4.705 4.717 2.823 5.682 3.282 5.682 4.271 19.374-8.06 0-16.528-.519-24.573 0-.46-7.068 1.446-12.763 3.81-18.396 0-.471 5.164-4.718 5.623-5.176-.905-3.354-.459-8.058-3.27-10.41l2.811-2.836 3.282-6.612zM173.003 47.215V66.54l1.905-9.88 2.352 8.964v49.05h-33.476v-49.05l2.365-10.339c-1.448-5.706 1.894 10.796 1.894 10.796V47.673c8.916 0 16.514-.458 24.96-.458zM304.144 191.06v-23.584l-2.836-1.895v-14.608l-8.963-7.069-8.976 5.163v8.529l-5.645-2.823V138.73l-8.505-5.646-9.422 4.198v9.964l-6.621-1.906v-20.303l-9.893-4.728-9.432 5.175v19.856l-6.612 1.906v-9.964l-9.434-4.198-8.444 5.646v15.574l-5.694 2.834v-8.07l-8.975-5.163-8.915 7.07v10.869l-2.364 2.364v26.853l59.87-22.595z"/>
  <path fill="none" stroke="#353537" stroke-miterlimit="2.613" stroke-width="1.89" d="m244.719 173.64 60.788 21.665v64.143c-3.27-9.903-7.986-22.595-15.068-29.217-11.786-10.399-26.382-20.315-46.238-26.395-19.314 5.645-33.922 14.15-44.804 25.417-6.538 7.082-12.244 14.658-14.597 25.02v-59.425z"/>
  <path fill="none" stroke="#353537" stroke-miterlimit="2.613" stroke-width="1.89" d="M244.201 216.08c20.314 8.457 41.063 20.255 48.144 43.827h6.106c-1.847-7.998-7.542-17.89-11.28-22.596-12.764-12.774-27.843-22.667-42.97-27.395-15.514 4.728-30.122 12.244-42.898 26.419-5.187 3.317-14.15 21.208-14.15 32.548l6.151-1.388c.919-26.455 30.196-44.346 50.897-51.415zm-100.876-98.57h34.394v38.193h-34.394zm194.742-69.837.47 18.867 1.894-9.88 2.352 8.964v49.05h-33.464v-49.05l1.894-10.339c-1.437-5.706 2.352 10.796 2.352 10.796V47.673h24.502zm-28.748 69.837h33.005v38.193h-33.005zm-67.472 4.257v-7.539h.99-5.693v-2.883h4.245v-4.186h3.8v4.186h4.247v2.883h-5.235.988v7.539zM139.996 159.03h41.523v58.957h-41.523zm167.405-.977h40.087v59.402h-40.087zm-167.405 63.648h41.51v49.075c-13.68 2.81-27.371 6.624-41.51 12.703zm206.587 0h-39.628v38.724c12.714 1.376 25.489 1.835 39.628 5.622z"/>
  <path fill="none" stroke="#353537" stroke-miterlimit="2.613" stroke-width="1.89" d="M239.025 226.89c1.894-5.189 7.54-5.646 8.976 0v33.535c-3.282 0-4.718 0-8.976.916zm-11.786 6.151c1.448-5.174 7.528-6.152 8.976 0l.458 28.76c-3.281.459-5.646 0-9.434.988zm34.453 0c-1.447-5.174-7.527-6.152-8.975 0l-.458 27.384c2.81-.518 5.174 0 9.433 0zm-47.156 8.518c1.364-5.224 7.53-6.154 8.964-.519l.459 21.22c-3.331 0-5.695.53-9.423 1.448zm58.943.929c-1.448-5.635-7.516-6.153-8.964-.47l.458 18.866c3.33-.459 5.164-.459 8.506-.459zm-72.176 13.679c1.906-5.175 8.058-5.706 9.421 0v8.976c-3.27.458-5.176 1.374-9.421 1.821zm86.327 0c-1.437-5.175-7.529-5.706-8.977 0l.459 4.717h8.517zm38.65-232.983V45.32M161.675 23.184V45.32m0-22.136V45.32M326.28 23.184V45.32"/>
  <path fill="#353537" fill-rule="evenodd" d="M348.947 98.17h.458c1.883.93 1.883 3.753 4.247 4.271 1.917-1.448 4.716 0 6.635.904 3.702 2.824 3.702 7.542 3.702 11.328 0 2.366 2.848 1.388 4.272 1.907 2.364.93 3.28 3.268 4.704 6.103.471.977 2.378.458 3.812.977 1.822-.977 1.822-4.716 4.73-5.235h2.797c2.824.519 2.824 4.258 5.635 5.235 3.788 0 6.152 2.812 8.057 5.635.47 4.717-.517 9.434-3.33 12.69.447 3.354.447 7.082-1.893 8.988l-5.176 2.811-6.622 10.423c0 .917.977 1.894 1.894 2.822l4.259-2.822c7.985 0 11.797-10.882 20.75-8.518 2.375 1.448 3.303 3.79 5.645 4.248 3.329-2.341 9.434-4.248 14.608-1.425 2.365 1.883 3.342 6.153 1.906 9.953l4.694 5.634c2.834 0 5.718.928 6.621 3.269 1.932 2.896.46 5.693 0 8.516 3.813 3.27 9 6.165 9 12.257 0 4.259-1.001 8.506-2.835 11.34.483 1.882 2.388 1.882 3.294 2.799 2.786 3.353.917 8.964-.459 12.257-2.835 3.788-8.059 3.788-10.88 5.694 0 .458 0 .929.445 1.374l10.894 1.436c4.693-2.81 9.41-5.174 15.574-3.788 1.846.978 4.704 2.883 5.632 5.223l.459 7.083c.977 2.822 4.717 0 7.083 1.832 2.35.99 3.798 3.8 3.353 7.07v2.895l7.516 2.353 3.739 7.08c-.446 2.354-2.835 3.728-2.364 6.551.506 0 1.422.519 2.364.519.989.458 2.341 1.376 2.858 2.81l-.517 5.634c.517.978.977 1.437 2.364 1.894 2.883 1.919 2.883 6.623.519 10.882-1.436 4.705-9.411 4.185-14.139 5.162-2.34 2.848-13.705 17.904-17.95 16.07-34.454-17.047-53.333-31.184-120.72-47.699V157.596l-4.258-3.293V98.17l6.153-.459.47.459m-39.628 3.753.457 52.38-2.821 3.75v10.412l-6.164-2.884v-14.608l-8.904-7.54-8.518 5.175v8.53l-5.645-2.835V138.27l-8.963-5.719-2.798 1.46c-.99-.93.905-5.176 2.34-5.633-2.871-.991-2.34-6.164 0-9.435 1.376-1.435 3.728-2.364 5.634-2.364 3.787-1.448 7.998 0 10.338 2.823l2.896-2.364c.458.47 4.716 1.386 2.81-.459.458-3.787 2.835-7.07 7.54-5.693 6.152.988 1.459-.459 4.716-5.178 5.622-4.716 3.27-1.905 7.082-3.786"/>
  <path fill="none" stroke="#353537" stroke-miterlimit="2.613" stroke-width="2.495" d="M635.188 520.708H2.534m632.654-58.931H2.534m632.654 6.635H2.534m632.654 6.587H2.534m632.654 6.551H2.534m632.654 6.165H2.534m632.654 6.598H2.534m632.654 6.624H2.534m632.654 6.562H2.534m632.654 6.586H2.534m632.654 13.247H2.534m632.654 6.104H2.534m632.654 6.611H2.534"/>
  <path fill="none" stroke="#353537" stroke-miterlimit="2.613" stroke-width="3.125" d="M7.01 790.437h631.507"/>
</svg>
