<?xml version="1.0" encoding="utf-8"?>
<!-- Generator: Adobe Illustrator 24.0.1, SVG Export Plug-In . SVG Version: 6.00 Build 0)  -->
<svg version="1.1" id="Layer_1" xmlns="http://www.w3.org/2000/svg" x="0px" y="0px"
     viewBox="0 0 64 60" style="enable-background:new 0 0 64 60;fill:#fff;" xml:space="preserve">
<path d="M31,10c0-3.7,2.5-5.6,6.2-4.7c4.5,1.1,8.3,6.4,7.8,11c-0.2,2.4-2.3,4.2-4.8,4c-0.1,0-0.1,0-0.2,0C35.4,19.7,31,14.8,31,10z"
	/>
<polygon points="31.9,21.3 44,25.7 44,59 31.9,54.6 "/>
<path d="M29.9,10c0-3.7-2.5-5.6-6.2-4.7c-4.5,1.1-8.2,6.4-7.8,11c0.2,2.4,2.3,4.2,4.8,4c0,0,0.1,0,0.1,0
	C25.5,19.7,29.9,14.8,29.9,10z"/>
<polygon points="28.9,21.3 16.8,25.7 16.8,59 28.9,54.6 "/>
<path d="M0.8,10c0-3.6,2.5-5.6,6.2-4.7c4.5,1.1,8.2,6.4,7.8,11c-0.2,2.4-2.4,4.2-4.8,4c0,0-0.1,0-0.1,0C5.2,19.7,0.8,14.8,0.8,10z"
	/>
<polygon points="1.7,21.3 13.8,25.7 13.8,59 1.7,54.6 "/>
<path d="M58.9,21.3v-2.1c0-5.6,1.2-7.6,4.9-6.9V0.8c-8.5,0-17,6.2-17,17.6V59L59,54.6V31.3l4.8-1.8v-10L58.9,21.3z"/>
</svg>
