<svg xmlns="http://www.w3.org/2000/svg" xml:space="preserve" fill-rule="evenodd" stroke-miterlimit="2" clip-rule="evenodd" viewBox="0 0 120 34"><path fill="#231f20" fill-rule="nonzero" d="M6.696.443h15.505l.709-.01h1.574c.754 0 1.997-.035 3.749-.109l.655-.027c-.096 1.357-.115 1.889-.119 2.609l-.008 2.078-.009 1.969v11c0 6.927-1.572 9.28-9.063 12.97-.331.163-4.149 2.063-4.55 2.278l-.372.201-.382.198-.382-.198-.383-.201c-1.574-.824-3.172-1.547-4.413-2.154C2.344 27.689.146 25.305.146 17.953v-11L.127 4.984.118 2.906C.113 1.65.099 1.242 0 .297l.655.027c1.724.072 3.009.109 3.757.109h1.566l.718.01Z"/><path fill="#fff" fill-rule="nonzero" d="m14.383 32.928 2.951-1.446.074-.026-.018-.065v-13.54l-.028-.083.094.018h10.678l.092.028-.028-.119v-5.741l.028-.092-.092.027H17.456l-.094.018.028-.091V1.044l.018-.092-.082.028H11.48l-.093-.028.028.092v10.772l.018.091-.083-.018H.754l-.093-.027.029.092v5.795l-.029.065.093-.028H11.35l.083-.018-.018.11v13.486l-.028.11.074.018 2.922 1.436Z"/><path fill="#ef3f35" fill-rule="nonzero" d="M.8.98.661.952l.029.101v10.782l-.029.082.13-.027h10.55l.092.028-.018-.093V1.026l.018-.074-.092.028H.8Zm16.701 0-.129-.028.018.101v10.782l-.018.083.12-.028h10.633l.101.027-.028-.093V1.026l.028-.074-.101.028H17.501Zm-6.114 16.806H.726l-.065-.026.029.073v.643c0 5.92 1.981 8.799 8.077 11.738l1.928.93.672.313.055.064-.009-.093.002-13.586.018-.082-.046.026Zm6.058 0-.073-.026.018.063v13.568l-.018.101.073-.082.609-.276c8.279-3.887 10.144-6.204 10.144-12.603v-.68l.028-.091-.092.026H17.445Z"/><path fill="#231f20" fill-rule="nonzero" d="M2.424 12.424c.029.031.05.057.064.073.035.04.059.067.073.083.012.012.04.039.084.082l.073.073c-.026.021-.042.033-.046.038l-.092.082-.074.083-.027.028v.087c0 .744.193 1.251.608 1.588l.074.059-.074.05-.083-.009-.175-.018-.157-.028-.092-.018-.092.662h-.129l-.093-.662-.092.018c-.079.016-.128.026-.147.028l-.185.018-.083.009c-.039-.001-.07-.013-.07-.028 0-.016.016-.038.043-.059l.138-.105c.114-.088.189-.197.323-.47.06-.122.092-.227.092-.303.001-.194.029-.35.064-.35l.019-.34.009-.129-.037-.028-.074-.083-.092-.082-.037-.038c.034-.032.058-.057.074-.073.128-.125.141-.14.213-.238Zm3.494 0c.072.098.086.113.212.238.017.016.042.041.074.073l-.037.038-.092.082-.073.083-.046.028.018.129.019.34c.026.488.298 1.051.581 1.206.048.025.078.048.078.059 0 .026-.019.047-.042.047l-.12-.006-.175-.018-.157-.028-.092-.018-.092.662h-.12l-.092-.662c-.186.041-.331.057-.52.074-.037 0-.063-.012-.063-.03 0-.019.015-.04.039-.058l.137-.105c.121-.092.153-.14.324-.47.066-.129.1-.233.101-.303.001-.194.025-.35.055-.35l.019-.34.009-.129c-.012-.013-.022-.022-.028-.028-.047-.048-.075-.075-.082-.083l-.093-.082-.037-.038c.033-.032.057-.057.074-.073.044-.043.071-.07.083-.082.014-.016.039-.043.074-.083.014-.016.036-.042.064-.073Zm-1.742 2.042.064.073.065.083c.015.02.043.047.083.083l.082.073-.045.037-.083.082-.084.075-.027.036v.086c0 .765.182 1.243.609 1.588l.073.06-.073.05-.084-.008-.175-.019-.156-.028-.092-.018-.093.663h-.129l-.092-.663c-.181.042-.334.057-.517.074-.036 0-.065-.014-.065-.03 0-.015.017-.035.047-.058l.138-.105c.295-.225.498-.842.498-1.506v-.086l-.027-.036-.083-.075-.084-.082-.046-.037c.141-.121.209-.194.296-.312Zm3.504 0c.086.118.155.191.295.312l-.047.037-.082.082-.082.075-.029.036v.086c0 .5.145 1.101.313 1.294l.185.212c.015.017.049.045.101.082l.084.06-.074.05-.083-.008-.176-.019-.157-.028-.091-.018-.092.663h-.13l-.092-.663c-.182.042-.333.057-.517.074-.035 0-.065-.014-.065-.031 0-.015.017-.036.042-.057l.134-.105c.29-.229.508-.847.508-1.506v-.086l-.029-.036-.082-.075-.083-.082-.046-.037c.037-.032.064-.057.083-.073.039-.036.066-.062.083-.083l.064-.083.065-.073Zm1.751-2.042c.073.098.085.113.213.238.016.016.041.041.074.073l-.037.038-.092.082-.074.083-.037.028.009.129.018.34c.027.475.307 1.058.582 1.206.047.025.078.047.078.059 0 .026-.017.047-.037.047l-.116-.006-.184-.018c-.039-.004-.09-.014-.156-.028l-.083-.018-.092.662h-.13l-.092-.662c-.169.046-.345.055-.519.074-.035 0-.063-.013-.063-.029s.016-.037.043-.059l.133-.105c.123-.098.162-.154.323-.47.067-.13.101-.234.101-.303.001-.194.026-.35.056-.35l.018-.34.01-.129-.028-.028-.083-.083c-.041-.042-.069-.07-.083-.082-.008-.007-.023-.019-.046-.038.032-.032.057-.057.074-.073.043-.043.071-.07.082-.082.015-.016.04-.043.074-.083.015-.016.037-.042.064-.073Zm9.952-.019.064.083.065.073c.043.05.07.08.082.092.018.018.045.042.084.074l-.047.036-.083.083-.083.074-.027.037v.079c0 .741.248 1.389.608 1.586.056.03.08.054.08.08l-.006.012-.074.018h-.082c-.109 0-.3-.033-.425-.074l-.092.663h-.13l-.091-.663c-.131.042-.32.074-.425.074h-.083c-.054 0-.077-.01-.077-.032 0-.026.023-.05.077-.078.355-.184.609-.847.609-1.586v-.079l-.028-.037-.082-.074-.084-.083-.046-.036c.038-.032.066-.056.083-.074.012-.012.04-.042.083-.092l.064-.073.066-.083Zm3.513 0 .064.083.074.073.083.092.074.074-.046.036-.083.083-.083.074-.028.037v.079c0 .732.252 1.392.609 1.586.055.03.08.054.08.08l-.006.012-.074.018h-.082c-.109 0-.302-.033-.426-.074l-.092.663h-.129l-.092-.663c-.149.048-.312.074-.46.074-.101 0-.122-.005-.122-.036 0-.028.022-.048.084-.074.075-.033.208-.169.286-.294.146-.234.23-.434.231-.553 0-.198.029-.358.064-.358l.018-.341.01-.119c-.017-.016-.029-.028-.037-.037-.117-.117-.126-.125-.212-.193l.083-.074.082-.092.074-.073.056-.083Zm-1.752 2.042c.028.032.05.057.064.073.035.04.06.068.074.083.012.013.035.045.078.088.017.016.046.036.079.069l-.046.037-.084.091-.082.074-.028.037.009.119.019.341c.027.502.289 1.046.58 1.205.056.03.08.054.08.08l-.006.012-.074.019h-.082c-.109 0-.3-.034-.425-.074l-.092.662h-.129l-.092-.662c-.124.045-.308.075-.462.075-.095 0-.117-.01-.117-.043 0-.026.022-.044.081-.069.073-.031.212-.175.286-.295.15-.246.239-.45.239-.552 0-.198.025-.358.056-.358l.018-.341.01-.119-.037-.037-.074-.074-.093-.091-.036-.037c.032-.033.057-.058.073-.074.128-.126.14-.14.213-.239Zm3.541 0c.028.032.05.057.064.073.035.04.06.068.074.083.011.013.04.04.083.083.017.016.041.041.074.074-.016.016-.029.029-.036.037-.053.053-.083.083-.093.091-.05.044-.077.068-.084.074-.005.005-.014.017-.028.037l.01.119.018.341c.028.502.291 1.046.581 1.205.056.03.08.054.08.08l-.006.012-.074.019h-.082c-.108 0-.3-.034-.425-.074l-.092.662h-.12l-.101-.662c-.124.045-.308.075-.462.075-.094 0-.117-.01-.117-.043 0-.026.021-.044.081-.069.073-.031.212-.175.286-.295.151-.246.239-.45.24-.552 0-.198.024-.358.056-.358l.017-.341.01-.119-.038-.037-.165-.165-.037-.037c.032-.033.057-.058.074-.074.127-.126.141-.14.212-.239Zm1.752-2.042.064.083.074.073.083.092.074.074-.046.036-.083.083-.083.074-.028.037v.079c0 .733.253 1.392.609 1.586.055.03.08.054.08.08l-.006.012-.074.018h-.083c-.108 0-.3-.033-.424-.074l-.093.663h-.129l-.092-.663c-.149.048-.313.074-.459.074-.102 0-.123-.005-.123-.036 0-.028.022-.048.084-.074.074-.033.208-.169.286-.294.146-.234.231-.434.231-.553.001-.198.029-.358.064-.358l.018-.341.01-.119c-.017-.016-.029-.028-.037-.037-.041-.041-.065-.066-.074-.074l-.093-.083-.036-.036.074-.074.083-.092.073-.073.056-.083Zm-13.649 9.502c.072.098.085.113.212.24.018.015.042.04.074.073l-.037.037-.091.083-.074.083-.037.036.009.12.018.339c.017.301.142.69.295.911.102.147.214.263.287.294.061.027.084.047.084.076 0 .03-.023.036-.132.036-.143 0-.33-.031-.45-.074l-.093.661h-.129l-.091-.661c-.126.04-.317.073-.425.073h-.082c-.055 0-.079-.009-.079-.032 0-.026.024-.051.079-.079.088-.045.213-.174.285-.294.162-.271.239-.448.239-.552.001-.197.025-.359.056-.359l.018-.339.009-.12-.027-.036-.083-.083-.083-.083-.047-.037c.033-.033.058-.058.074-.073l.083-.083c.014-.016.04-.043.074-.083.015-.017.036-.041.064-.074Zm3.293 0c.071.098.084.113.212.24.016.015.041.04.074.073l-.036.037-.094.083-.074.083-.036.036.009.12.019.339c.017.301.141.688.294.911.102.147.214.263.286.294.062.027.085.047.085.076 0 .03-.023.036-.131.036-.144 0-.331-.031-.452-.074l-.092.661h-.129l-.092-.661c-.124.04-.317.073-.424.073h-.083c-.055 0-.078-.009-.078-.032 0-.026.025-.051.078-.079.089-.045.215-.174.286-.294.161-.271.24-.448.24-.552 0-.197.024-.359.055-.359l.018-.339.01-.12-.028-.036-.083-.083-.083-.083-.046-.037c.033-.033.057-.058.073-.073.045-.044.072-.072.084-.083.015-.016.038-.043.073-.083.015-.017.036-.041.065-.074Zm-1.679 2.981.042.096.088.06.082.092.074.074-.036.037-.092.082c-.009.007-.034.033-.075.074l-.037.037.01.119.018.34c.028.499.308 1.081.582 1.207.062.027.082.045.082.071l-.009.019-.065.029-.082-.011-.185-.018c-.039-.003-.092-.013-.157-.027l-.082-.018-.102.662h-.12l-.092-.662c-.184.042-.332.054-.517.074-.041 0-.067-.017-.067-.042 0-.028.022-.05.077-.077.09-.05.214-.177.286-.296.163-.272.239-.448.239-.552 0-.198.025-.359.056-.359l.018-.34.01-.119-.028-.037-.084-.074-.083-.082-.046-.037.075-.074.082-.092.074-.074.064-.082Zm-1.632 3.035.065.083.074.073.082.094.061.086-.033.024-.083.081-.083.075-.027.037.009.119.018.341c.027.502.29 1.046.581 1.204.056.031.079.055.079.081l-.005.011-.074.018h-.082c-.074 0-.207-.02-.425-.064l-.092.654h-.129l-.093-.654c-.195.044-.34.066-.463.066-.094 0-.116-.008-.116-.043 0-.025.022-.044.081-.069.073-.031.213-.174.287-.294.15-.247.239-.45.239-.551 0-.199.026-.359.055-.359l.018-.341.01-.119c-.017-.017-.028-.029-.037-.037-.04-.041-.066-.067-.074-.075l-.092-.081-.037-.038.074-.072.083-.094.073-.073.056-.083Zm3.311 0 .055.083.074.073.069.107.088.059-.036.038-.094.081c-.008.008-.032.034-.074.075-.007.008-.019.02-.036.037l.009.119.019.341c.017.3.141.687.294.91.102.148.214.263.286.294.062.026.085.048.085.075 0 .03-.023.035-.123.035-.119 0-.265-.02-.46-.064l-.092.654h-.129l-.092-.654c-.218.044-.351.064-.424.064h-.083c-.055 0-.078-.009-.078-.031 0-.026.025-.052.078-.079.089-.045.215-.174.286-.294.161-.271.24-.448.24-.551 0-.199.024-.359.055-.359l.018-.341.01-.119-.028-.037-.083-.075-.083-.081-.046-.038.073-.072.084-.094.073-.073.065-.083Zm-1.679-9.014.056.083.074.073.082.091.074.075-.036.036-.092.083c-.009.008-.034.032-.075.074-.008.008-.02.019-.037.036l.01.119.018.342c.028.496.313 1.092.582 1.205.06.024.081.043.081.07 0 .032-.025.039-.117.039-.122 0-.267-.02-.462-.064l-.102.662h-.12l-.092-.662c-.218.044-.351.064-.425.064h-.082c-.054 0-.078-.009-.078-.031 0-.027.024-.051.078-.078.089-.048.214-.176.286-.295.161-.27.239-.448.239-.552 0-.197.025-.358.056-.358l.018-.342.01-.119-.028-.036-.084-.074-.083-.083-.046-.036.075-.075.082-.091.074-.073.064-.083Zm-1.66-16.788c.029.032.051.057.065.073.035.04.06.068.074.083.012.012.039.04.083.083.017.017.041.04.073.073L13 2.471l-.091.082c-.008.007-.036.035-.083.083-.007.005-.016.015-.028.027l.009.129.019.331c.018.32.16.766.295.92l.184.211c.01.011.043.039.102.083l.078.06-.078.05-.084-.009-.175-.018-.157-.027-.092-.019-.101.636-.111.027-.092-.663-.093.019-.156.027-.175.018-.097.011c-.034 0-.061-.014-.061-.031s.014-.038.038-.058c.008-.006.054-.042.138-.106.12-.089.153-.138.323-.468.067-.13.101-.233.101-.304.001-.198.026-.359.056-.359l.018-.331.009-.129-.036-.027-.074-.083-.093-.082-.036-.038c.033-.033.057-.056.073-.073.128-.126.141-.14.212-.239Zm3.339 0c.071.099.084.113.212.239.016.017.041.04.074.073l-.036.038-.094.082-.074.083-.036.027.009.129.019.331c.027.488.303 1.065.58 1.214.049.026.079.05.079.06 0 .026-.016.046-.037.046l-.116-.005-.183-.018c-.039-.003-.092-.013-.158-.027l-.083-.019-.092.663h-.129l-.092-.663c-.201-.039-.116.066-.52.075-.033 0-.062-.013-.062-.029 0-.017.016-.039.043-.06l.133-.106c.123-.096.162-.154.323-.468.066-.131.102-.234.102-.304.001-.198.025-.359.055-.359l.018-.331.01-.129-.028-.027-.083-.083c-.041-.042-.069-.07-.083-.082-.008-.008-.023-.02-.046-.038.033-.033.057-.056.073-.073.045-.043.072-.071.084-.083.015-.015.038-.043.073-.083.015-.016.036-.041.065-.073ZM14.383 5l.065.073.074.083c.045.05.072.081.083.092.016.017.041.042.074.073l-.046.037-.083.083-.083.074-.028.037.009.119.01.313c.027.503.299 1.074.59 1.233.056.03.08.055.08.079l-.007.012-.073.019h-.083c-.108 0-.3-.033-.425-.074l-.092.663h-.128l-.093-.663c-.123.046-.306.075-.46.075-.1 0-.122-.007-.122-.037 0-.027.023-.048.084-.074.075-.033.207-.17.286-.294.146-.234.231-.434.231-.552.001-.199.029-.36.065-.36l.017-.34.01-.119c-.017-.016-.029-.028-.037-.037-.04-.041-.065-.066-.074-.074l-.092-.083-.037-.037.074-.073.083-.092c.043-.048.068-.075.073-.083.014-.015.032-.04.055-.073Zm-1.65 2.87.065.074.064.083c.016.019.043.047.084.082l.082.074c-.026.019-.041.032-.046.036l-.083.083-.082.083-.029.028v.085c0 .485.145 1.093.305 1.267l.203.238c.001.002.036.03.102.083l.073.061-.073.05-.084-.009-.174-.018-.158-.028-.092-.019-.092.663h-.129l-.092-.663c-.188.043-.329.057-.52.074-.035 0-.062-.012-.062-.028 0-.017.015-.038.042-.06l.134-.106c.307-.242.508-.836.508-1.505l-.001-.085-.028-.028-.083-.083c-.041-.043-.068-.07-.083-.083-.007-.007-.023-.019-.046-.036.037-.033.064-.058.083-.074.04-.035.067-.063.083-.082l.065-.083.064-.074Zm3.329 0c.029.033.051.057.065.074.034.039.06.067.074.083.011.011.04.038.083.082l.074.074c-.027.019-.042.032-.047.036l-.082.083-.084.083-.027.028.009.128.018.341c.028.507.225.916.581 1.204l.073.061-.073.05-.082-.009-.176-.018-.157-.028-.092-.019-.092.663h-.129l-.101-.69c-.169.038-.174.068-.231.074l-.184.018-.083.009h-.01c-.033 0-.056-.012-.056-.03s.014-.039.038-.058l.138-.106c.12-.091.155-.141.323-.468.067-.13.101-.233.102-.304 0-.193.025-.349.055-.349l.018-.341.009-.128-.036-.028-.074-.083-.092-.083-.038-.036c.033-.033.058-.058.075-.074.128-.126.14-.14.211-.239ZM9.155 6.389l.037.138c.033.124.057.222.074.294.116.525.214.663.47.663.147 0 .268-.08.305-.203l.055-.184c.013-.043.044-.067.088-.067.1 0 .147.104.151.334.002.066.024.217.066.451.024.138.036.272.036.402 0 .116-.01.166-.055.287.032.181.056.424.056.564 0 .228-.043.439-.112.55.04.153.047.213.047.346 0 .098-.009.204-.028.307-.04.221-.049.277-.049.317 0 .043.007.084.022.124.017.053.027.09.027.11 0 .026-.013.047-.027.047l-.185-.073-.203-.111c-.066-.036-.111-.072-.212-.166-.179.161-.232.185-.702.313-.093.025-.162.053-.202.083-.058.042-.101.064-.123.064-.079 0-.117-.127-.117-.39 0-.194.02-.377.056-.511-.137-.054-.255-.083-.33-.083-.014 0-.061.006-.14.018l-.034.003c-.027 0-.051-.04-.051-.088 0-.036.025-.125.056-.199l.093-.222c.034-.08.11-.171.221-.267.092-.077.174-.124.24-.138l.331-.064c.198-.038.316-.142.316-.279 0-.131-.089-.222-.287-.291l-.397-.139c-.102-.034-.223-.094-.359-.174-.22-.13-.257-.147-.31-.147-.079 0-.125.06-.125.163 0 .164.106.279.258.279.032 0 .063-.007.093-.019.044-.018.077-.028.095-.028.041 0 .065.025.065.07l-.003.04-.018.157c-.016.134-.103.296-.296.552l-.082.11c-.075.297-.259.566-.498.727-.06.041-.094.066-.101.074-.009.009-.033.052-.074.129-.019.034-.081.108-.185.22-.078.084-.156.155-.23.212-.103.078-.166.134-.185.165l-.092.157c-.017.029-.045.046-.074.046-.081 0-.158-.085-.203-.23-.033-.108-.064-.138-.133-.138-.036 0-.091.009-.161.028l-.13.017h-.333c-.165 0-.4.043-.506.093-.043.02-.075.029-.095.029-.024 0-.037-.012-.062-.057-.017-.029-.02-.044-.02-.073 0-.168.12-.484.279-.736.1-.16.131-.196.248-.295-.038-.156-.137-.277-.258-.312l-.157-.046c-.022-.007-.037-.025-.037-.045 0-.048.075-.113.213-.185.18-.095.361-.147.506-.147.153 0 .302.06.471.193.25.195.317.23.439.23.198 0 .384-.18.384-.369 0-.126-.066-.26-.243-.487-.257-.331-.333-.504-.333-.747 0-.152.047-.345.103-.43l.093-.138c.019-.03.03-.061.03-.089 0-.061-.071-.106-.167-.106-.146 0-.424.104-.648.241-.11.068-.185.146-.185.196 0 .028.014.056.038.071l.102.064c.012.008.02.022.02.038 0 .014-.016.042-.038.072l-.185.24c-.097.124-.243.277-.387.404-.049.043-.08.073-.093.092 0 .002-.025.048-.073.138-.066.124-.24.302-.407.414-.067.046-.111.08-.129.101-.013.016-.038.059-.074.129-.023.046-.062.11-.119.193-.091.133-.164.229-.222.285l-.257.258c-.08.079-.15.233-.259.57-.065.204-.124.322-.159.322-.015 0-.04-.02-.072-.054-.183-.21-.34-.333-.422-.333-.019 0-.054.016-.102.047-.069.042-.153.073-.25.092l-.341.064c-.257.049-.359.104-.507.276-.035.041-.065.064-.081.064-.028 0-.049-.045-.049-.106l.01-.086.046-.249c.049-.264.11-.462.184-.598l.157-.285c.03-.055.046-.107.046-.15 0-.212-.219-.405-.489-.43-.068-.006-.092-.022-.092-.06 0-.047.074-.139.175-.215.185-.141.427-.24.581-.24.094 0 .238.038.415.111l.203.082c.076.031.146.048.206.048.215 0 .423-.195.68-.637.115-.197.166-.342.166-.471 0-.233-.111-.375-.293-.375-.138 0-.29.067-.399.175-.093.093-.142.191-.142.285l.003.102.002.023c0 .085-.029.133-.081.133-.087 0-.214-.124-.575-.561-.27-.326-.331-.467-.341-.791-.314-.399-.39-.567-.39-.851l.012-.189c-.217-.259-.278-.401-.278-.64 0-.087.014-.138.066-.243-.11-.161-.146-.233-.176-.358l-.047-.194c-.031-.132-.079-.245-.146-.341C.974 3.777.966 3.76.966 3.72c0-.107.074-.149.397-.229-.013-.09-.019-.158-.019-.204 0-.053.006-.105.029-.219l.064-.34c.026-.138.039-.236.039-.296 0-.063-.011-.108-.067-.294-.033-.104-.061-.175-.083-.211-.03-.046-.056-.104-.056-.126 0-.032.023-.05.064-.05.091 0 .333.145.582.351.529.437.638.612.71 1.141.006.041.015.102.028.184.254.187.387.41.387.652 0 .191-.069.412-.184.59l-.185.285c-.054.084-.083.189-.083.304 0 .174.05.332.176.552.14.247.261.349.41.349.243 0 .457-.422.457-.902v-.064l-.003-.167c0-.092.006-.185.021-.302.016-.143.026-.232.028-.266l.009-.222.003-.145c0-.051-.027-.103-.095-.177l-.203-.22c-.293-.319-.455-.619-.455-.845 0-.278.202-.488.472-.488.052 0 .101.008.195.035v-.062c0-.405.083-.705.195-.705l.044.014.167.147.202.128.056.056c0-.114.005-.126.12-.258.027-.032.07-.09.129-.175.047-.068.077-.113.092-.137.014-.024.029-.052.046-.083.025-.048.049-.069.077-.069.026 0 .046.034.079.133.022.063.037.08.195.221.055.05.092.09.11.119.016.025.04.087.075.184.005.017.014.04.027.074.068-.087.102-.117.184-.166l.138-.083c.052-.031.088-.047.103-.047.011 0 .029.022.045.056.014.033.039.079.074.139.098.17.13.253.13.332l-.001.09v.111c.302.094.416.251.416.577 0 .234-.124.502-.361.784-.158.189-.177.226-.177.357 0 .681.475 1.075 1.311 1.087l.618.01c.398.006.635.044 1.006.166.437.142.565.174.691.174.044 0 .086-.013.12-.037s.055-.054.055-.081c0-.13-.226-.233-.969-.443-1.519-.43-2.167-1.04-2.167-2.046 0-.776.648-1.378 1.485-1.378.27 0 .685.071.923.158l.378.139c.068.025.136.037.198.037.129 0 .195-.106.198-.323.003-.116.029-.156.106-.156.105 0 .27.133.42.341.151.21.25.445.25.603 0 .21-.099.355-.324.481-.207.315-.462.461-.804.461-.266 0-.645-.151-1.271-.506-.219-.125-.33-.166-.444-.166-.163 0-.27.095-.27.24 0 .132.103.218.374.311.396.14.496.193.654.36.469.081.674.162.968.387.81.256 1.311.805 1.311 1.438 0 .613-.415 1.055-.995 1.055-.138 0-.222-.011-.436-.056Zm17.208 0 .037.138c.033.124.057.222.074.294.116.525.215.663.471.663.146 0 .267-.08.303-.203l.056-.184c.013-.043.045-.067.088-.067.101 0 .153.11.161.334.002.085.021.235.055.451.024.155.037.297.037.426 0 .092-.012.148-.056.263l.019.111c.031.182.039.252.039.337 0 .395-.019.512-.113.666.039.151.049.22.049.329 0 .07-.009.169-.03.324l-.038.275.01.166c.024.061.036.098.036.11 0 .026-.016.047-.036.047l-.184-.073-.203-.111c-.066-.036-.112-.072-.212-.166-.178.158-.204.172-.415.23-.306.083-.419.122-.48.166-.059.042-.104.064-.126.064-.073 0-.123-.138-.123-.341 0-.294.017-.447.065-.56-.18-.061-.27-.083-.336-.083-.025 0-.039.002-.135.018l-.041.004c-.027 0-.042-.034-.042-.088 0-.091.063-.271.148-.422.116-.205.306-.376.452-.405l.332-.064c.197-.038.314-.142.314-.279 0-.131-.087-.22-.287-.291l-.387-.139c-.131-.046-.253-.105-.368-.174-.099-.059-.166-.099-.204-.12-.033-.018-.068-.027-.1-.027-.082 0-.132.06-.132.156 0 .157.121.286.268.286.032 0 .065-.007.094-.019.041-.018.07-.028.085-.028.041 0 .072.04.072.098 0 .164-.103.446-.213.583l-.111.138-.082.11c-.032.237-.264.576-.499.727-.056.036-.09.061-.101.074-.007.009-.032.052-.073.129-.02.034-.081.108-.185.22-.077.084-.155.155-.23.212-.104.078-.166.134-.185.165l-.092.157c-.02.032-.043.048-.072.048-.083 0-.159-.086-.205-.232-.034-.108-.064-.138-.133-.138-.036 0-.091.009-.162.028l-.13.017h-.322c-.175 0-.409.043-.516.093-.043.02-.075.029-.096.029-.046 0-.072-.048-.072-.14 0-.291.225-.734.518-1.021-.043-.169-.133-.282-.25-.312-.103-.028-.159-.044-.165-.046-.017-.01-.028-.026-.028-.044 0-.059.066-.117.212-.186.262-.124.339-.147.485-.147.168 0 .309.056.483.193.25.195.32.231.44.231.196 0 .385-.181.385-.368 0-.128-.07-.269-.243-.489-.246-.313-.333-.517-.333-.782 0-.178.036-.275.194-.533.025-.041.039-.075.039-.099 0-.05-.084-.096-.176-.096-.1 0-.222.036-.388.112-.278.127-.443.245-.443.317 0 .029.017.059.046.079l.093.064c.012.008.02.022.02.038s-.018.048-.039.072c-.018.021-.079.101-.185.24-.128.171-.251.299-.387.404-.048.038-.08.069-.092.092l-.073.138c-.062.116-.245.305-.397.414-.069.049-.113.084-.129.101-.019.021-.047.064-.083.129-.096.169-.243.377-.341.478l-.25.258c-.071.074-.171.287-.267.57-.075.223-.125.322-.158.322-.016 0-.042-.02-.072-.054-.179-.205-.34-.333-.419-.333-.019 0-.057.017-.107.047-.071.043-.155.074-.249.092l-.332.064c-.277.054-.388.113-.516.276-.033.041-.06.064-.074.064-.033 0-.056-.047-.056-.112l.009-.08c.002-.009.018-.092.047-.249.048-.261.114-.479.185-.598l.165-.285c.03-.052.047-.103.047-.149 0-.212-.199-.384-.499-.431-.061-.009-.093-.032-.093-.067 0-.042.073-.123.185-.208.197-.148.412-.24.564-.24.103 0 .241.036.424.111L20 8.78c.076.031.146.048.206.048.214 0 .423-.195.679-.637.117-.198.167-.341.167-.472 0-.234-.109-.374-.291-.374-.142 0-.279.061-.393.175-.099.102-.153.203-.153.293l.006.094.004.049c0 .074-.025.107-.08.107-.071 0-.152-.067-.311-.257-.066-.079-.152-.18-.258-.304-.281-.327-.338-.459-.35-.791-.314-.399-.39-.619-.39-.851l.011-.189c-.224-.269-.267-.372-.267-.637 0-.119.007-.15.055-.246-.11-.161-.146-.233-.174-.358l-.047-.194c-.032-.132-.08-.244-.147-.341-.084-.117-.093-.135-.093-.169 0-.097.092-.159.323-.216l.074-.019c-.012-.09-.019-.158-.019-.204 0-.053.007-.105.028-.219l.064-.34c.026-.133.039-.235.039-.303 0-.078-.013-.142-.057-.287-.028-.093-.059-.164-.092-.211-.036-.051-.055-.093-.055-.121 0-.032.03-.056.073-.056.022 0 .061.012.092.031.312.168.652.438.895.707.209.232.275.425.323.939.283.211.388.4.388.698 0 .178-.058.349-.185.544-.113.172-.174.267-.185.285-.054.091-.083.199-.083.312 0 .166.05.322.175.544.138.243.262.349.409.349.241 0 .46-.416.46-.876-.021-.392.059-.779.07-1.17 0-.09-.019-.116-.303-.419-.313-.335-.461-.617-.461-.879 0-.247.214-.454.469-.454.053 0 .102.008.196.035v-.11l.008-.192.056-.24c.044-.191.065-.226.131-.226l.045.015.166.147.202.128.056.056c.012-.115.023-.139.119-.258.049-.06.091-.118.13-.175l.092-.137.055-.083c.037-.055.053-.07.077-.07.025 0 .042.032.071.134.012.042.041.083.082.119l.121.102c.097.082.162.202.202.377.074-.092.109-.123.184-.166l.149-.083c.054-.031.087-.046.096-.046.011 0 .027.022.042.055.021.049.046.094.074.139.119.19.129.217.129.346v.187c.299.082.416.243.416.574 0 .247-.115.502-.351.787-.158.19-.185.248-.185.39 0 .65.49 1.042 1.319 1.054l.608.01c.398.006.641.045 1.005.166.427.139.566.174.696.174.094 0 .171-.052.171-.115 0-.133-.223-.236-.968-.446-1.518-.428-2.168-1.041-2.168-2.045 0-.778.651-1.378 1.492-1.378.265 0 .68.071.915.157l.378.139c.069.025.137.037.199.037.13 0 .179-.08.198-.323.009-.108.043-.156.113-.156.096 0 .286.152.423.341.139.193.238.45.238.616 0 .196-.102.345-.322.468-.207.315-.462.461-.804.461-.263 0-.707-.178-1.271-.506-.221-.129-.318-.166-.441-.166-.166 0-.272.093-.272.24 0 .132.098.215.372.311.436.156.53.207.655.36.469.081.674.162.968.387.842.269 1.31.787 1.31 1.45 0 .606-.411 1.043-.981 1.043-.152 0-.232-.011-.449-.056ZM9.331 23.756c.08.203.107.301.12.432l.017.387c.015.386.145.58.387.58.09 0 .163-.024.204-.065l.102-.101.039-.012c.065 0 .1.042.1.12l-.01.15c-.008.067.005.209.036.422.019.126.029.249.029.372 0 .196-.015.27-.084.447.064.182.102.385.102.556 0 .199-.034.336-.111.447.037.159.046.223.046.312 0 .092-.012.209-.037.351-.033.191-.045.34-.037.441l.001.023c0 .058-.017.087-.053.087-.035 0-.078-.028-.114-.073-.057-.072-.093-.099-.135-.099-.064 0-.084.034-.179.311-.029.084-.103.2-.22.34-.093.109-.148.2-.167.267-.029.109-.047.174-.054.192-.011.025-.033.043-.057.047h-.012c-.15 0-.325-.324-.504-.939-.05-.172-.114-.25-.208-.25-.067 0-.134.043-.16.104l-.057.128c-.008.023-.027.037-.047.037-.074 0-.187-.134-.256-.304-.058-.14-.09-.292-.09-.422 0-.288.212-.504.856-.867.278-.156.387-.357.387-.717 0-.285-.086-.448-.333-.634-.193-.148-.307-.203-.411-.203-.087 0-.154.058-.154.132 0 .087.048.138.169.182.142.049.205.099.205.164 0 .057-.06.183-.16.332-.103.159-.148.205-.293.304-.044.253-.164.414-.443.598-.057.158-.087.214-.185.339l-.193.249c-.061.078-.129.218-.139.286-.02.14-.033.165-.087.165-.073 0-.224-.129-.374-.322-.09-.114-.111-.168-.12-.303-.096.075-.126.085-.314.11-.112.016-.196.037-.248.064-.142.076-.189.095-.215.095-.037 0-.05-.019-.052-.086l-.011-.202c0-.278.111-.602.278-.819-.162-.138-.323-.224-.452-.239-.055-.005-.069-.013-.069-.032 0-.035.036-.106.087-.171.068-.086.124-.148.167-.183.129-.112.356-.194.534-.194.119 0 .296.044.526.129.082.03.155.046.219.046.102 0 .159-.065.159-.181 0-.168-.083-.43-.268-.849-.125-.284-.183-.476-.183-.607 0-.319.151-.65.34-.745-.09-.044-.128-.056-.206-.056-.092 0-.165.024-.284.092-.136.079-.212.15-.212.196 0 .019.028.047.075.08.072.05.084.069.084.137 0 .227-.189.53-.453.728-.058.323-.207.517-.498.654-.038.174-.063.226-.203.422-.241.338-.297.445-.341.636-.022.097-.046.139-.076.139-.038 0-.12-.06-.21-.159-.077-.083-.126-.142-.147-.173-.04-.062-.06-.121-.102-.295-.066.019-.084.022-.131.022l-.136-.004-.092-.002c-.203 0-.417.045-.526.112-.04.025-.067.038-.08.038-.06 0-.108-.125-.108-.28 0-.333.093-.607.308-.907-.079-.066-.106-.091-.175-.165-.031-.033-.057-.056-.074-.065l-.102-.055c-.034-.019-.055-.043-.055-.06 0-.05.134-.177.295-.281.178-.115.318-.166.447-.166.15 0 .231.039.419.202.132.114.221.167.285.167.044 0 .093-.031.131-.083.03-.042.047-.09.047-.138 0-.176-.211-.472-.444-.626-.174-.114-.364-.175-.549-.175-.257 0-.478.128-.576.331l-.101.213c-.024.049-.054.074-.088.074-.059 0-.091-.027-.3-.268l-.239-.276c-.074-.085-.124-.166-.148-.239-.022-.069-.037-.108-.046-.119-.009-.013-.04-.037-.092-.075-.186-.13-.319-.389-.396-.763-.007-.027-.015-.066-.028-.119-.226-.276-.362-.618-.362-.915 0-.038.004-.056.021-.125-.131-.132-.147-.164-.249-.515-.074-.25-.121-.358-.213-.479-.024-.031-.037-.055-.037-.071 0-.049.078-.09.212-.112.127-.021.135-.022.186-.022l.183.013-.011-.252c0-.149.011-.246.048-.42.018-.087.028-.152.028-.192 0-.016-.006-.069-.019-.158-.009-.067-.019-.115-.028-.138-.013-.034-.019-.061-.019-.078 0-.029.019-.044.056-.044.025 0 .064.011.121.04.16.079.294.158.397.239.316.248.567.63.567.866l-.005.072c-.013.083-.019.128-.019.136 0 .04.022.093.065.149l.101.138c.09.122.149.266.149.361 0 .086-.018.124-.168.339-.11.16-.156.28-.156.41 0 .167.066.375.185.582.108.191.234.297.355.297.206 0 .294-.183.327-.673.017-.256.041-.486.074-.7l.009-.125c0-.057-.017-.091-.092-.178l-.277-.322c-.265-.307-.344-.466-.344-.685 0-.255.168-.43.41-.43l.109.012-.001-.073c0-.058.015-.142.048-.249.056-.199.13-.35.168-.35.012 0 .043.016.089.045.015.01.072.031.167.065.052.019.088.037.184.093.044-.16.077-.232.148-.323.119-.153.254-.276.301-.276.029 0 .084.04.15.111l.176.184c.029.031.063.089.101.174l.038.082c.049-.026.085-.048.109-.064.073-.043.123-.07.148-.083.112-.051.172-.079.175-.082.048-.03.081-.047.095-.047.031 0 .049.055.117.36.048.208.055.253.065.405.294.041.433.209.433.525 0 .297-.146.591-.461.928-.085.092-.106.135-.106.221 0 .812.283 1.069 1.305 1.178.628.065.814.105 1.568.33.397.118.624.169.771.169.174 0 .272-.064.272-.175 0-.171-.124-.225-.858-.38-1.709-.359-2.381-.942-2.381-2.065 0-.802.603-1.403 1.404-1.403.354 0 .67.107 1.169.395.465.268.56.313.667.313.124 0 .173-.078.173-.279 0-.127.04-.19.12-.19.073 0 .186.076.286.193.153.18.212.273.212.522 0 .333-.178.551-.525.647-.037.04-.065.071-.084.092-.188.212-.356.285-.658.285-.262 0-.592-.108-.817-.268l-.443-.311c-.191-.136-.33-.194-.465-.194-.188 0-.301.114-.301.302 0 .185.123.334.324.397l.415.129c.146.046.216.075.395.166.104-.015.151-.02.207-.02.258 0 .537.069.781.195.077.039.133.063.165.073l.232.065c.522.146.951.73.951 1.3 0 .652-.424 1.055-1.107 1.055l-.213-.01Zm16.045-.139c.16.212.387.352.573.352.057 0 .156-.016.248-.038.05-.012.091-.018.123-.018.044 0 .063.017.063.058 0 .032-.022.11-.048.171-.029.071-.047.125-.055.166l-.037.193-.092.166-.129.119-.036.036v.126c0 .223-.068.352-.25.473-.015.01-.036.026-.064.046l-.019.073c-.04.17-.072.278-.093.323-.022.049-.081.135-.174.257-.112.145-.184.265-.231.377-.037.092-.067.119-.126.119-.093 0-.182-.113-.197-.248-.021.029-.036.047-.046.056l-.111.073-.174.119c-.078.054-.128.091-.148.111l-.102.102c-.018.018-.036.027-.053.027-.046 0-.095-.079-.14-.23l-.093-.304c-.025-.081-.037-.181-.037-.297 0-.151.011-.207.065-.328-.184.02-.236.03-.332.064-.028.01-.063.02-.08.02-.031 0-.05-.021-.05-.058 0-.021.018-.084.037-.136l.121-.314c.093-.241.393-.462.632-.462.057 0 .135.017.235.048.06.02.108.031.139.031.108 0 .193-.079.193-.175 0-.05-.034-.103-.073-.122-.017-.007-.128-.041-.333-.101-.155-.046-.231-.102-.405-.304-.128-.145-.176-.186-.223-.186-.036 0-.055.022-.055.064l.01.122.003.056c0 .256-.076.501-.261.836l-.259.47c-.123.223-.175.391-.175.562 0 .185.081.348.185.376l.138.037c.017.005.033.014.046.027.018.019.029.038.029.053 0 .021-.017.052-.048.085-.015.019-.071.09-.165.212-.16.207-.26.281-.452.341-.112.269-.292.427-.619.533l-.036.065c-.11.192-.354.368-.51.368h-.034c-.021.169-.142.343-.323.468-.126.088-.196.14-.212.156-.012.013-.026.041-.046.084-.042.091-.08.129-.131.129-.099 0-.18-.091-.238-.267-.037.023-.065.042-.083.054-.104.074-.163.115-.175.12-.042.021-.15.052-.323.092-.226.053-.421.15-.47.231l-.083.137-.038.017c-.045 0-.097-.064-.119-.146-.052-.19-.083-.388-.083-.516 0-.327.108-.54.442-.872l-.001-.079c0-.509.389-.853.961-.853l.091.002.315.019h.029c.169 0 .326-.064.496-.203.225-.183.291-.297.291-.503 0-.065-.018-.14-.088-.371-.046-.15-.068-.294-.068-.432 0-.379.279-.852.658-1.112.098-.069.17-.158.17-.21 0-.02-.011-.038-.025-.038-.024 0-.066.026-.118.072-.043.041-.118.088-.221.139l-.147.073-.166.064c-.051.02-.077.048-.077.084 0 .02.008.048.022.082.011.03.018.054.018.068 0 .02-.015.057-.046.107l-.129.212c-.126.207-.218.294-.378.368-.104.301-.252.457-.471.486-.173.351-.327.472-.636.507-.042.133-.116.246-.277.424-.065.071-.105.12-.119.146-.072.131-.079.139-.112.139-.042 0-.139-.064-.21-.139-.034-.034-.062-.072-.084-.11l-.083-.148c-.027-.047-.055-.068-.089-.068l-.058.004-.204.027c-.127.018-.308.121-.369.213l-.11.164c-.012.018-.028.028-.045.028-.082 0-.132-.182-.132-.483 0-.264.041-.44.13-.566l.259-.358c.036-.051.056-.099.056-.14 0-.04-.016-.081-.047-.118-.054-.064-.107-.104-.147-.11l-.194-.027c-.035-.006-.048-.013-.048-.03 0-.015.01-.038.029-.062.064-.08.143-.149.231-.203.228-.139.379-.195.533-.195.155 0 .325.056.481.158l.268.176c.037.024.083.036.128.036.124 0 .217-.073.306-.241.084-.159.121-.289.121-.424 0-.347-.248-.595-.592-.595-.16 0-.323.063-.479.184-.048.037-.079.071-.093.101l-.073.166c-.018.039-.044.063-.066.063-.047 0-.152-.132-.239-.303-.046-.09-.09-.2-.129-.331-.056-.18-.078-.317-.078-.459l.014-.248c-.126-.197-.168-.338-.168-.571 0-.083.014-.149.066-.323-.077-.128-.101-.223-.101-.41l.009-.114.027-.128.019-.111c-.09-.117-.115-.193-.203-.599-.049-.227-.08-.327-.119-.385-.019-.028-.028-.046-.028-.055 0-.054.129-.103.275-.103l.13.011c-.032-.086-.039-.119-.039-.187 0-.112.024-.239.067-.365.049-.14.058-.18.058-.226 0-.109-.015-.219-.04-.28l-.073-.185c-.017-.04-.024-.068-.024-.094 0-.019.012-.025.046-.025.181 0 .526.195.798.451.27.253.357.459.357.838l-.016.201c.251.219.362.401.362.599 0 .143-.047.239-.186.377-.249.246-.305.373-.305.692 0 .488.146.752.415.752.24 0 .422-.257.452-.635l.028-.349c.007-.091.023-.201.046-.332.015-.084.028-.193.028-.24 0-.124-.081-.279-.323-.561-.259-.302-.346-.464-.346-.701 0-.282.195-.49.462-.49.066 0 .099.01.179.051.004-.161.011-.189.101-.414.072-.178.149-.303.185-.303.012 0 .032.013.055.036.039.04.08.074.12.101.057.041.087.062.093.065.02.017.047.044.083.082.057-.205.116-.302.285-.468.129-.126.178-.166.203-.166.02 0 .043.017.065.046l.11.148.158.174c.059.067.081.123.11.285l.092-.056.147-.082c.027-.014.065-.039.111-.073.026-.018.046-.028.059-.028.015 0 .033.026.043.064l.054.212.121.238c.036.074.046.128.046.239v.057l.062-.003c.181 0 .338.215.338.462 0 .327-.262.751-.603.975-.031.11-.038.155-.038.244 0 .732.192.886 1.32 1.054.281.042.535.093.756.156.036.01.279.091.729.239.249.082.417.119.545.119.139 0 .214-.038.214-.112 0-.124-.184-.237-.75-.457l-.802-.314c-.815-.317-1.201-.814-1.201-1.545 0-.853.639-1.491 1.495-1.491.323 0 .637.067 1.089.231.582.211.612.221.676.221.112 0 .173-.076.19-.239.015-.137.053-.193.129-.193.114 0 .236.104.324.275.076.15.119.324.119.478 0 .304-.16.504-.452.562-.194.254-.441.38-.742.38-.367 0-.549-.071-1.175-.463-.225-.141-.321-.175-.486-.175-.22 0-.382.136-.382.322 0 .167.136.278.443.358.183.049.21.062.305.157.074-.016.106-.022.153-.022.299 0 .668.161.981.428.568.175 1.074.786 1.074 1.298 0 .569-.493 1.077-1.044 1.077-.149 0-.445-.048-.713-.114Z"/><path fill="#fd0" fill-rule="nonzero" d="M10.068 10.418c-.026-.11-.035-.167-.035-.222l.008-.073.027-.147.009-.119c0-.127-.021-.219-.064-.276l-.111-.147c-.037-.05-.068-.109-.092-.175-.012-.034-.019-.06-.019-.079 0-.041.026-.066.067-.066.025 0 .035.004.118.053.036.02.066.032.09.032.055 0 .087-.09.087-.246 0-.177-.019-.276-.057-.32l-.139-.156-.119-.102c-.029-.024-.049-.056-.049-.08 0-.039.031-.067.075-.067.042 0 .13.02.204.046l.043.01c.037 0 .051-.022.051-.077l-.001-.033-.028-.194-.056-.202c-.017-.065-.026-.076-.069-.076l-.022.002-.232.046-.036.005c-.302 0-.621-.256-.72-.575l-.184-.598c-.057-.185-.195-.359-.442-.561-.076-.061-.14-.097-.184-.101l-.167-.018c-.031-.004-.05-.021-.05-.046 0-.038.035-.056.114-.056l.305.028c.11.01.278.053.498.129.275.094.461.134.618.134.461 0 .737-.248.737-.665 0-.284-.149-.605-.378-.813-.129-.116-.259-.203-.303-.203-.027 0-.048.022-.048.049l.01.118.001.01c0 .046-.027.082-.064.082-.046 0-.098-.061-.158-.185-.175-.361-.451-.577-.737-.577-.05 0-.085.021-.085.05 0 .018.016.063.047.132l.073.165c.02.045.031.073.031.085 0 .012-.018.021-.039.021-.043 0-.111-.038-.157-.087l-.138-.148-.12-.183c-.097-.147-.174-.214-.378-.322-.115-.061-.189-.101-.222-.12-.042-.023-.082-.037-.114-.037-.033 0-.05.016-.05.049 0 .029.013.064.035.099.069.105.096.158.096.184 0 .03-.023.055-.049.055-.071 0-.22-.144-.351-.34-.108-.162-.166-.343-.166-.517 0-.396.289-.689.681-.689.201 0 .457.085.693.23l.434.267c.15.093.372.166.503.166.059 0 .182-.021.271-.046.04-.011.077-.027.111-.046.026-.015.043-.035.043-.051 0-.019-.01-.036-.025-.041l-.055-.018-.204-.037c-.052-.01-.136-.041-.248-.092-.243-.112-.397-.188-.461-.23-.151-.1-.254-.158-.304-.175-.076-.025-.122-.059-.122-.087 0-.027.014-.041.041-.041.027 0 .061.013.099.035.136.085.254.129.342.129l.396.139c.197.068.484.128.613.128.168 0 .303-.135.303-.303 0-.109-.064-.271-.16-.404-.022-.031-.044-.047-.062-.047-.037 0-.057.026-.057.073l.009.074.013.11c0 .119-.081.214-.182.214-.038 0-.087-.01-.146-.029l-.599-.193c-.502-.163-.734-.212-.986-.212-.718.001-1.265.491-1.265 1.137 0 .733.516 1.205 1.79 1.641 1.254.428 1.43.534 1.43.855 0 .185-.188.35-.398.35-.085 0-.158-.005-.22-.019-.043-.007-.251-.057-.627-.146-.378-.091-.723-.13-1.148-.13-.905 0-1.407.159-1.84.58-.108.106-.145.122-.27.122l-.063-.002-.128-.01h-.018c-.108 0-.188.051-.259.167-.098.155-.15.238-.157.248-.025.034-.066.055-.105.055-.084 0-.133-.063-.227-.285-.046-.108-.111-.203-.193-.277l-.185-.165c-.029-.027-.046-.052-.046-.071 0-.02.013-.049.037-.086.088-.127.118-.184.13-.239.024-.122.027-.128.077-.128.058 0 .074.056.079.267.001.06.026.144.074.248l.101.22c.013.029.045.047.083.047.096 0 .217-.224.249-.46.027-.198.048-.258.088-.258.018 0 .033.006.041.019.01.013.037.069.083.165.024.051.065.098.12.138.053.039.091.06.111.064l.011.002c.075 0 .1-.049.118-.222l.009-.092-.019-.129-.013-.089c0-.06.021-.095.055-.095.021 0 .045.013.069.036l.092.093c.061.061.123.092.183.092.077 0 .123-.031.123-.082 0-.043-.017-.087-.085-.213l-.063-.12c-.075-.138-.134-.193-.203-.193l-.093.01-.11.045c-.034.014-.058.021-.073.021-.016 0-.029-.015-.029-.036 0-.083.055-.212.157-.375.073-.116.123-.365.147-.722.032-.48.096-.791.164-.791.045 0 .063.038.063.14l-.005.127-.004.088c0 .085.02.155.042.155.079 0 .173-.117.247-.309.032-.078.048-.141.048-.187l-.01-.042-.185-.34-.185-.055c-.034-.01-.057-.026-.064-.042-.002-.272.023-.276-.102-.529-.201.11-.297.181-.368.276-.072.096-.114.133-.149.133-.024 0-.045-.023-.045-.048 0-.024.009-.073.028-.149l.006-.052c0-.197-.121-.393-.32-.519l-.055.074-.065.092-.111.129c-.034.041-.066.103-.092.184-.012.039-.019.074-.019.105l.001.014.001.034c0 .076-.009.096-.043.096l-.023-.01-.064-.092-.102-.11-.157-.102-.082-.064c-.016.036-.029.064-.037.083-.028.063-.044.114-.046.147l-.009.147-.01.156.001.027c0 .08-.019.112-.068.112-.016 0-.063-.02-.108-.046-.041-.025-.088-.038-.134-.038-.144 0-.235.1-.235.254 0 .184.054.361.148.483l.12.156c.033.042.093.077.097.056l.023-.194-.028-.157-.006-.069c0-.06.021-.096.055-.096.052 0 .083.056.117.212l.073.34.074.432c.02.117.057.241.111.368.073.173.125.282.156.323.102.13.114.149.114.177 0 .024-.018.044-.039.044-.02 0-.048-.011-.083-.028-.032-.017-.069-.03-.111-.037l-.073-.01c-.147 0-.178.126-.178.74 0 .375.079.884.178 1.128l.192.487c.032.077.047.155.047.229 0 .671-.892 1.724-1.872 2.209-.365.18-.48.353-.508.754l-.009.12c.149-.077.21-.102.314-.129.275-.071.328-.105.369-.239l.036-.12c.015-.045.038-.062.25-.174.073-.039.124-.08.148-.119.046-.078.084-.119.11-.119.022 0 .034.01.034.029l-.007.034-.092.262-.011.065c0 .194.107.353.306.455.033-.214.056-.286.121-.387l.165-.257c.062-.096.087-.212.087-.394 0-.103-.008-.21-.022-.287l-.007-.073c0-.046.025-.074.066-.074.032 0 .057.012.061.028l.037.174c.008.038.045.064.09.064.088 0 .204-.114.325-.321.046-.077.068-.161.068-.243l-.013-.126-.028-.137-.002-.027c0-.06.033-.102.082-.102.021 0 .037.007.039.018l.057.212c.018.07.067.119.119.119.062 0 .168-.105.23-.229.057-.11.084-.235.084-.377 0-.196.021-.252.092-.252.023 0 .043.009.046.022l.037.119c.014.044.041.073.066.073.039 0 .141-.111.21-.23.019-.03.029-.06.029-.086 0-.038-.026-.078-.084-.126-.096-.079-.101-.09-.101-.211 0-.115.019-.176.101-.322.045-.078.085-.151.12-.22.117-.228.158-.286.201-.286.035 0 .067.038.067.081 0 .024-.006.05-.019.076-.024.051-.038.088-.038.109 0 .036.031.066.069.066.043 0 .099-.019.164-.055.024-.014.11-.048.257-.101l.305-.111c.05-.018.112-.028.185-.028.056 0 .111.007.164.019.11.024.18.037.213.037.084 0 .158-.072.158-.154 0-.06-.064-.181-.148-.279-.032-.036-.048-.065-.048-.083l.011-.037c.011-.022.031-.036.049-.036.062 0 .208.154.337.359.795 1.247 1.079 1.549 1.614 1.71.544.165.684.291.684.614 0 .174-.089.38-.286.656-.402.56-.499.787-.499 1.156v.067c.046-.019.079-.035.101-.046.076-.037.126-.059.149-.064l.229-.046c.07-.013.132-.102.132-.187l-.002-.025-.028-.202-.002-.026c0-.072.036-.154.085-.195.015-.012.032-.019.048-.019.026 0 .057.024.072.056l.147.313c.061.128.131.188.323.276Zm-7.435-6.67c-.067 0-.101.059-.108.185l-.019.174c-.021.164-.022.181-.022.223 0 .131.039.228.092.228.059 0 .151-.111.197-.239.028-.078.042-.145.042-.216 0-.06-.015-.133-.042-.208-.033-.092-.084-.147-.14-.147Z"/><path fill="#fd0" fill-rule="nonzero" d="m1.787 2.314.001.079c0 .115-.027.251-.121.602-.017.065-.028.127-.028.167 0 .062.023.128.074.21.029.048.059.08.083.091l.111.056.018.129c-.004.05.005.119.028.202.025.091.038.184.038.275 0 .077-.007.107-.024.107-.034 0-.096-.095-.153-.235-.088-.222-.168-.304-.294-.304-.1 0-.166.016-.287.075.029.035.048.06.056.073.007.011.035.064.084.156l.128.249c.09.172.142.27.157.295.034.052.078.096.129.128.016.009.065.037.148.082.044.024.075.06.075.086 0 .04-.034.07-.079.07h-.006l-.12-.017-.066-.008c-.037 0-.054.033-.054.102 0 .249.198.537.544.789.043.03.075.073.075.098 0 .031-.031.058-.068.058-.021 0-.076-.016-.117-.037-.026-.012-.048-.019-.064-.019-.045 0-.075.037-.075.093 0 .066.053.196.166.414.076.143.186.25.314.303l.415.175c.022.009.037.031.037.055 0 .033-.024.061-.055.065l-.084.009-.073.008-.12-.008-.018-.001c-.058 0-.081.012-.081.041 0 .046.052.16.136.3.098.164.184.258.238.258.021 0 .044-.018.057-.047l.101-.211c.018-.036.101-.101.241-.184.087-.053.175-.088.258-.101l.166-.028c.043-.007.066-.037.066-.087-.042-.254-.059-.512-.085-.768-.003-.052-.017-.075-.046-.075-.022 0-.059.029-.083.065-.145.221-.245.295-.4.295-.491 0-.864-.863-.864-2.004 0-.099.007-.225.019-.379.024-.292.028-.365.028-.474 0-.494-.104-.843-.314-1.053l-.129-.128-.083-.092Zm1.19 6.724c-.13-.019-.19-.033-.268-.064-.021-.009-.08-.034-.175-.073-.149-.065-.26-.093-.353-.093-.14 0-.253.046-.385.157l.084.064.184.129.175.138c.046.036.099.055.152.055.181 0 .338-.084.586-.313Zm3.55 1.674c.051-.114.075-.146.185-.239.257-.22.378-.384.378-.515v-.202c0-.118.019-.157.081-.157.028 0 .05.01.057.028l.046.11c.011.026.041.042.078.042.035 0 .088-.042.134-.107l.092-.128c.047-.065.068-.12.068-.179 0-.036-.008-.073-.021-.106-.007-.019-.03-.067-.065-.147-.021-.048-.038-.111-.038-.144 0-.06.031-.096.083-.096.027 0 .051.01.065.029l.075.091c.016.02.041.032.07.032.033 0 .072-.032.095-.078l.074-.147c.019-.038.029-.066.029-.082 0-.03-.03-.059-.085-.084l-.119-.055c-.159-.073-.278-.326-.278-.59 0-.035.007-.069.02-.099l.064-.157c.019-.045.028-.095.028-.147 0-.095-.031-.192-.092-.285-.075-.114-.115-.179-.12-.194-.055-.145-.083-.186-.128-.186-.367.118-.195.229-.462.315-.078.039-.151.202-.151.339 0 .238.028.305.343.848.124.21.188.391.188.526 0 .377-.338.646-1.017.808l-.424.101c-.312.074-.496.288-.562.653.128-.067.179-.076.408-.076l.136.003h.021c.123 0 .14-.01.219-.121.09-.127.18-.203.304-.257l.147-.064.121-.064.036-.01c.033 0 .05.013.05.038 0 .035-.033.096-.086.156-.108.118-.148.217-.148.355 0 .089.021.141.101.242Z"/><path fill="#fd0" fill-rule="nonzero" d="M5.366 9.287c.105.066.212.162.276.248.089.12.1.129.187.129.037 0 .083-.006.136-.019l.082-.018c.152-.029.204-.052.204-.089 0-.022-.017-.05-.047-.077l-.1-.092-.102-.092c-.066-.059-.195-.102-.304-.102-.111 0-.176.021-.332.112Zm2.987.496.055-.009.083-.009.084.009.04.002c.205 0 .401-.173.401-.355 0-.063-.058-.098-.163-.098-.248 0-.403.143-.5.46Zm18.923.635c-.022-.084-.029-.124-.029-.169l.011-.126c.023-.171.03-.254.03-.358 0-.067-.02-.121-.067-.184l-.111-.147c-.071-.096-.101-.169-.101-.251 0-.053.012-.071.049-.071l.043.009c.005.002.032.018.082.046.038.02.069.032.093.032.056 0 .084-.087.084-.26 0-.238-.046-.353-.185-.462l-.13-.102c-.021-.017-.038-.047-.038-.075 0-.044.027-.072.069-.072.025 0 .062.007.107.018l.102.028.04.01c.031 0 .046-.025.046-.079l-.003-.031-.027-.194c-.029-.201-.062-.278-.122-.278l-.017.002-.24.046-.04.005c-.288 0-.627-.273-.715-.575l-.176-.598c-.052-.178-.207-.375-.443-.561-.076-.061-.143-.095-.193-.101l-.166-.018c-.03-.004-.05-.022-.05-.046 0-.038.032-.057.1-.057.234 0 .483.048.817.158.303.098.468.134.616.134.462 0 .74-.239.74-.638 0-.199-.072-.45-.176-.61-.089-.138-.241-.28-.434-.405-.028-.018-.054-.028-.073-.028-.026 0-.047.021-.047.047l.01.12.001.01c0 .045-.027.082-.06.082-.051 0-.104-.06-.162-.185-.17-.359-.444-.576-.726-.576-.061 0-.097.022-.097.06 0 .029.017.071.048.121.029.047.057.102.083.165.015.037.022.063.022.079 0 .018-.014.027-.042.027-.04 0-.11-.038-.155-.087-.092-.098-.138-.147-.138-.148l-.12-.183c-.093-.142-.196-.232-.37-.322l-.23-.12c-.047-.023-.087-.037-.119-.037-.028 0-.042.015-.042.042 0 .029.014.066.042.106.048.072.085.149.085.183 0 .032-.02.056-.046.056-.065 0-.181-.116-.343-.34-.117-.161-.177-.336-.177-.516 0-.388.299-.69.685-.69.198 0 .445.083.689.23l.444.267c.158.096.372.166.506.166.073 0 .095-.004.259-.046.048-.013.089-.028.12-.046.02-.012.033-.033.033-.054 0-.036-.022-.052-.08-.056-.205-.016-.632-.184-.913-.359-.163-.102-.264-.161-.304-.175-.076-.027-.126-.066-.126-.098 0-.013.015-.021.039-.021l.055.009.401.146.387.139c.19.067.485.128.621.128.174 0 .294-.121.294-.295 0-.088-.021-.187-.057-.256-.056-.109-.13-.203-.16-.203-.036 0-.055.037-.055.098l.002.049.013.118c0 .125-.069.206-.174.206-.042 0-.093-.01-.152-.029l-.599-.193c-.521-.168-.723-.212-.98-.212-.724 0-1.27.488-1.27 1.137 0 .734.504 1.193 1.798 1.641 1.256.435 1.42.534 1.42.865 0 .189-.178.34-.402.34-.082 0-.154-.005-.216-.019-.054-.01-.263-.059-.627-.146-.385-.093-.711-.13-1.147-.13-.914 0-1.354.14-1.831.58-.111.103-.155.122-.278.122l-.063-.002-.146-.01c-.11 0-.193.054-.26.167l-.148.248c-.019.034-.06.055-.105.055-.095 0-.147-.063-.236-.285-.046-.119-.11-.213-.184-.277l-.194-.165c-.029-.025-.046-.049-.046-.067 0-.019.016-.05.046-.09.029-.036.056-.079.083-.128.028-.052.044-.089.046-.111l.009-.082c.008-.027.036-.045.065-.045.061 0 .073.039.074.266 0 .057.024.143.073.248l.102.22c.013.029.045.047.083.047.095 0 .216-.224.249-.46.026-.197.047-.258.088-.258.038 0 .055.023.134.184.023.05.061.097.111.138.044.038.082.06.109.064l.01.001c.077 0 .102-.047.12-.221l.008-.092-.017-.129-.014-.089c0-.06.021-.095.055-.095.021 0 .045.013.069.036l.092.093c.062.062.124.092.186.092.079 0 .127-.034.127-.09 0-.047-.009-.069-.092-.205-.008-.012-.028-.053-.064-.12-.082-.154-.12-.193-.192-.193l-.094.01-.12.045c-.035.014-.06.021-.073.021-.016 0-.028-.015-.028-.037 0-.083.055-.213.157-.374.062-.099.117-.346.157-.722l.046-.433c.028-.265.057-.358.11-.358.02 0 .035.007.037.018l.028.138v.111c0 .134.014.243.031.243.039 0 .097-.046.154-.124.039-.055.07-.116.091-.185.031-.097.047-.178.047-.24 0-.213-.09-.305-.378-.384-.03-.008-.05-.019-.056-.028-.03-.29.032-.254-.11-.543l-.074.046c-.189.118-.234.153-.296.23-.083.106-.114.132-.147.132-.027 0-.046-.018-.046-.04l.036-.156.004-.027c0-.202-.114-.397-.317-.544l-.064.074-.065.092-.11.129c-.065.075-.103.177-.103.273l.002.03v.031c0 .072-.012.097-.045.097l-.02-.008-.074-.092-.092-.11-.167-.102-.082-.064c-.09.193-.094.214-.094.461l.002.077c0 .082-.027.134-.072.134-.022 0-.061-.016-.114-.046-.04-.025-.089-.038-.136-.038-.135 0-.233.114-.233.269 0 .169.037.284.149.468.072.119.167.217.212.217.005 0 .016-.087.028-.199l-.028-.157-.007-.069c0-.06.021-.096.056-.096.052 0 .083.056.117.212l.074.34.074.432c.019.117.056.241.11.368.072.173.126.282.157.323.101.13.114.149.114.177 0 .024-.02.044-.041.044-.019 0-.047-.011-.083-.028-.031-.017-.068-.03-.11-.037l-.067-.01c-.153 0-.184.122-.184.733 0 .381.079.889.177 1.135l.194.487c.03.077.046.155.046.229 0 .673-.911 1.749-1.872 2.209-.374.179-.485.366-.517.874.16-.075.224-.101.322-.129.273-.076.332-.114.37-.239l.037-.12c.016-.051.05-.077.239-.174.072-.037.122-.078.148-.119.048-.08.085-.119.11-.119.026 0 .04.017.04.047l-.002.016-.101.262L20.2 10c0 .192.109.354.307.455.013-.049.022-.086.028-.111.032-.14.064-.234.093-.276l.175-.257c.063-.093.075-.155.075-.393l-.011-.288-.006-.075c0-.047.024-.073.064-.073.033 0 .059.012.062.029l.027.174c.007.037.045.064.09.064.089 0 .204-.113.325-.321.047-.08.066-.144.066-.22 0-.058-.012-.187-.029-.286l-.004-.053c0-.047.028-.076.071-.076.023 0 .041.007.045.018l.064.212c.021.071.07.119.12.119.142 0 .289-.289.304-.597.009-.195.033-.262.093-.262.023 0 .042.009.045.023l.037.119c.013.044.04.073.066.073.024 0 .07-.04.128-.109.032-.041.06-.081.083-.121.018-.032.027-.065.027-.096 0-.046-.009-.06-.083-.116-.067-.05-.1-.115-.1-.192 0-.133.056-.277.22-.561.151-.259.171-.288.207-.288.035 0 .062.034.062.078 0 .027-.007.055-.02.081-.024.053-.038.089-.038.11 0 .036.033.065.073.065.045 0 .103-.019.168-.055.039-.022.122-.056.249-.101.172-.062.277-.099.313-.111.058-.018.125-.028.19-.028.054 0 .107.007.162.019.104.024.176.037.212.037.084 0 .148-.064.148-.145 0-.037-.025-.107-.057-.159-.047-.077-.075-.121-.083-.129-.04-.043-.057-.066-.057-.082l.012-.038c.011-.022.03-.036.051-.036.073 0 .215.148.344.359.724 1.177 1.074 1.55 1.605 1.71.554.167.684.285.684.614 0 .175-.093.387-.287.656-.369.51-.499.809-.499 1.148l.001.075c.045-.019.079-.035.101-.046.076-.037.125-.059.149-.064l.229-.046c.072-.014.13-.101.13-.193l-.001-.019-.018-.202-.001-.032c0-.114.056-.207.123-.207.027 0 .057.022.072.055l.148.313c.06.128.13.188.322.276Zm-7.562-6.311-.009.147-.003.091c0 .149.024.213.08.213.061 0 .157-.114.2-.239.026-.078.047-.187.047-.249 0-.044-.011-.086-.047-.175-.042-.1-.084-.147-.136-.147-.079 0-.115.102-.132.359Z"/><path fill="#fd0" fill-rule="nonzero" d="m18.995 2.314.001.079c0 .085-.026.24-.065.39-.035.131-.053.201-.056.212-.012.053-.019.109-.019.167 0 .129.063.251.157.301l.102.056.018.129c-.005.05.005.119.028.202.025.092.038.185.038.276 0 .078-.006.106-.024.106-.035 0-.096-.095-.153-.235-.088-.222-.168-.304-.293-.304-.102 0-.167.016-.287.075.096.123.154.228.267.478.147.326.203.392.433.505.051.025.085.06.085.086 0 .043-.034.071-.084.071-.02 0-.079-.009-.13-.018l-.068-.008c-.036 0-.052.033-.052.106 0 .244.209.54.554.785.046.032.074.067.074.093 0 .015-.01.031-.028.044-.017.012-.033.019-.049.019-.019 0-.062-.014-.108-.037-.027-.013-.051-.021-.068-.021-.044 0-.072.043-.072.108 0 .084.062.231.168.401.097.154.204.261.305.303l.414.175c.022.009.037.03.037.053 0 .032-.023.059-.055.067l-.074.009-.083.008-.11-.008-.02-.001c-.057 0-.079.012-.079.042 0 .044.041.136.135.299.102.177.174.258.228.258.022 0 .044-.018.058-.047l.101-.211c.014-.028.097-.092.24-.184.087-.055.175-.09.258-.101.222-.029.241-.04.241-.131 0-.032-.01-.093-.029-.182-.009-.046-.018-.111-.027-.193l-.019-.174-.018-.203c-.002-.051-.017-.076-.046-.076-.019 0-.05.028-.074.066-.109.177-.268.296-.397.296-.516 0-.866-.82-.866-2.022l.009-.362.027-.431.006-.154c0-.37-.13-.753-.319-.942l-.129-.128-.083-.092Zm1.189 6.724c-.193-.033-.224-.042-.442-.137-.151-.067-.249-.093-.346-.093-.146 0-.259.044-.391.157l.082.064.185.129.175.138c.045.036.1.055.155.055.181 0 .333-.082.582-.313Zm3.551 1.674c.051-.114.075-.146.184-.239.258-.22.379-.384.379-.515v-.202c0-.118.02-.157.081-.157.027 0 .05.01.057.028l.046.11c.01.025.042.041.078.041.066 0 .112-.048.226-.234.048-.079.068-.13.068-.181 0-.034-.008-.069-.022-.104-.007-.018-.029-.067-.065-.147-.021-.048-.037-.112-.037-.144 0-.06.031-.096.083-.096.027 0 .051.01.066.029l.073.091c.017.02.02.032.049.032.034 0 .094-.032.117-.078l.074-.147c.019-.037.028-.066.028-.084 0-.03-.029-.063-.074-.082l-.13-.055c-.151-.065-.277-.324-.277-.57 0-.028.01-.068.028-.119l.056-.157c.018-.052.028-.104.028-.153 0-.09-.028-.177-.092-.279-.064-.103-.101-.167-.111-.194-.053-.136-.086-.182-.13-.182-.033 0-.065.011-.119.045l-.092.054-.13.147-.129.065c-.078.039-.151.205-.151.344 0 .199.044.307.345.843.128.227.188.395.188.524 0 .374-.383.682-1.009.81-.747.152-.909.276-.996.754.13-.067.18-.076.409-.076l.136.003h.021c.123 0 .14-.01.218-.121.09-.127.181-.203.304-.257l.148-.064.12-.064.036-.01c.035 0 .052.013.052.038 0 .031-.03.085-.088.156-.089.107-.14.219-.14.303 0 .124.02.185.094.294Z"/><path fill="#fd0" fill-rule="nonzero" d="M22.573 9.287c.106.066.214.162.277.248.088.12.101.129.188.129.036 0 .082-.006.135-.019l.082-.018c.157-.031.205-.053.205-.095 0-.024-.014-.051-.039-.071l-.11-.092-.102-.092c-.062-.056-.191-.102-.291-.102-.114 0-.207.031-.345.112Zm2.987.496.056-.009.093-.009.073.009.05.003c.093 0 .142-.011.18-.04.058-.043.116-.113.175-.212.026-.039.038-.075.038-.104 0-.063-.057-.098-.158-.098-.253 0-.408.141-.507.46ZM9.174 29.221l.055-.111.129-.138c.11-.117.168-.282.168-.476 0-.094-.017-.197-.048-.297-.023-.073-.038-.136-.038-.162 0-.058.044-.114.089-.114.018 0 .043.017.069.047l.138.156c.085.096.115.113.221.137l.01-.129.009-.15c0-.22-.08-.466-.203-.622-.073-.093-.107-.15-.107-.183 0-.034.025-.065.051-.065.008 0 .022.007.037.018.089.066.136.093.159.093.045 0 .085-.109.085-.232 0-.175-.072-.376-.188-.514-.059-.071-.095-.118-.11-.138-.013-.017-.019-.035-.019-.051 0-.041.033-.069.079-.069.036 0 .058.009.115.046.027.018.052.027.071.027.071 0 .098-.101.098-.374l-.003-.112-.009-.165c-.012-.196-.028-.231-.112-.231h-.073c-.449 0-.659-.284-.775-1.048-.083-.554-.291-.946-.544-1.032-.151-.05-.207-.083-.207-.122 0-.028.043-.053.089-.053.033 0 .11.022.174.046.367.15.677.222.948.222.441 0 .79-.325.79-.735 0-.316-.15-.634-.42-.894-.074-.07-.153-.117-.23-.138l-.018-.002-.047.016.019.134.037.092.009.038c0 .021-.018.035-.043.035-.027 0-.053-.013-.068-.036l-.166-.249c-.131-.197-.42-.361-.633-.361-.076 0-.123.034-.123.088 0 .026.024.072.055.108.048.052.084.117.084.146l-.011.038c-.009.019-.022.033-.036.037l-.009.001c-.045 0-.067-.021-.268-.25-.164-.187-.499-.369-.68-.369-.025 0-.048.01-.066.028-.012.013-.018.025-.018.037 0 .027.023.064.063.102.057.052.103.114.103.14 0 .018-.024.035-.052.035-.053 0-.171-.075-.391-.248-.344-.272-.498-.525-.498-.82 0-.356.255-.636.581-.636.19 0 .443.091.617.222l.452.34c.206.156.461.24.726.24.057 0 .113-.013.16-.036.039-.021.064-.045.064-.062 0-.011-.034-.029-.084-.04-.162-.04-.294-.096-.386-.165l-.461-.35c-.171-.129-.291-.212-.36-.248-.243-.127-.291-.158-.291-.186 0-.015.024-.026.053-.026.025 0 .052.006.081.019l.24.101c.078.032.207.109.387.23.493.328.745.434 1.035.434.275 0 .479-.195.479-.46 0-.052-.014-.11-.039-.158l-.045-.092c-.017-.034-.047-.058-.056-.047l-.027.038-.029.193c0 .007-.009.029-.026.064-.019.037-.04.068-.066.092-.05.049-.092.065-.168.065-.143 0-.304-.077-.736-.351-.436-.276-.83-.423-1.143-.423-.663 0-1.198.534-1.198 1.194 0 .923.563 1.337 2.333 1.722.672.145.968.343.968.642 0 .272-.221.444-.571.444-.106 0-.189-.006-.25-.018-.059-.012-.375-.099-.95-.258-.396-.11-.839-.173-1.231-.173-.693 0-1.162.207-1.48.652-.037.051-.074.083-.099.083-.018 0-.045-.013-.076-.037l-.128-.102c-.092-.07-.236-.125-.332-.125-.07 0-.136.027-.195.079-.046.042-.079.064-.095.064-.051 0-.145-.115-.218-.266-.103-.215-.157-.43-.157-.626 0-.091.028-.156.07-.156.031 0 .055.025.069.074l.074.266c.04.149.124.268.187.268.028 0 .078-.041.135-.112.034-.041.059-.085.074-.128.057-.169.072-.194.117-.194.054 0 .081.035.118.203.007.031.017.077.06.156.038.071.074.127.11.167.028.03.063.047.096.047.082 0 .155-.136.155-.284l-.001-.04-.011-.17c0-.067.01-.086.047-.086.022 0 .039.011.065.045.04.05.093.093.156.128.057.031.103.046.132.046.027 0 .059-.016.089-.046.025-.023.039-.049.039-.072 0-.028-.033-.069-.13-.167-.053-.052-.116-.179-.185-.368-.025-.072-.06-.119-.087-.119-.007 0-.028.006-.06.018l-.12.046-.084.037-.031.006c-.038 0-.071-.028-.071-.063 0-.036.084-.135.186-.22.073-.06.117-.149.12-.247.005-.154.033-.277.065-.277l.027-.321c.013-.162.08-.467.139-.635.01-.033.025-.055.036-.055.026 0 .048.069.048.146l-.002.047-.005.093c0 .117.019.176.055.176.04 0 .085-.057.126-.158l.083-.212c.024-.062.036-.121.036-.171 0-.18-.107-.31-.256-.31l-.066.012c-.036.011-.058.018-.066.018-.049 0-.089-.052-.089-.115l.007-.133-.009-.185-.037-.193-.01-.092-.082.046-.102.084-.147.119-.12.101c-.021.018-.046.028-.069.028-.07 0-.08-.019-.08-.162l.001-.035c0-.117-.05-.208-.24-.429-.01-.012-.025-.03-.046-.055l-.036.065-.102.165-.102.257-.018.166c-.005.047-.023.083-.042.083-.018 0-.05-.023-.087-.064-.141-.162-.185-.191-.397-.267l-.018.064c-.033.109-.052.174-.055.193l-.01.175v.072l.001.061c0 .05-.019.08-.05.08l-.006-.001c-.003-.001-.022-.017-.055-.046-.021-.019-.061-.029-.112-.029-.171 0-.281.093-.281.241 0 .11.038.191.208.45.074.113.162.203.197.203.022 0 .042-.06.042-.131l-.017-.109c-.018-.053-.026-.1-.026-.141 0-.051.015-.079.043-.079.081 0 .168.239.205.569l.036.341c.014.12.051.245.111.368.083.171.166.289.239.341.089.062.142.121.142.156 0 .028-.023.055-.047.055-.004 0-.066-.022-.187-.065l-.077-.012c-.184 0-.246.106-.246.423 0 .382.258.934.544 1.163l.425.34c.215.172.377.458.377.663 0 .268-.294.533-.802.717l-.303.11c-.237.086-.331.237-.425.681.12-.037.174-.048.254-.048l.041.001.137.005c.125 0 .214-.075.214-.178v-.084c0-.025.034-.058.082-.083.084-.041.126-.061.129-.064l.102-.083c.016-.014.035-.02.051-.02.029 0 .051.025.051.056 0 .023-.007.052-.019.085-.032.08-.048.191-.048.315 0 .225.034.346.149.511.011-.06.02-.1.028-.118.019-.047.072-.131.157-.249.14-.195.243-.432.243-.56l-.003-.038-.028-.212c0-.037.018-.076.047-.1.02-.019.042-.028.062-.028.039 0 .063.023.094.092.022.05.049.082.066.082.032 0 .095-.083.137-.183.03-.074.046-.14.046-.195 0-.033-.009-.074-.027-.119-.02-.046-.03-.082-.03-.103 0-.023.008-.036.039-.063.014-.011.03-.017.046-.017.019 0 .037.006.055.017l.082.057c.029.018.054.028.074.028.038 0 .09-.042.13-.102.08-.123.131-.225.131-.263 0-.024-.015-.042-.067-.077-.183-.13-.304-.326-.304-.494 0-.038.009-.083.028-.133l.092-.247c.046-.125.071-.19.073-.194l.027-.011c.031 0 .051.026.051.071 0 .031-.008.066-.022.106-.023.061-.039.132-.039.175 0 .066.034.1.097.1.045 0 .098-.013.154-.036.279-.12.5-.185.633-.185.126 0 .204.028.335.121.035.025.065.036.085.036.017 0 .036-.013.054-.036.012-.017.018-.033.018-.046 0-.034-.02-.075-.055-.12-.048-.06-.065-.093-.065-.129 0-.031.019-.049.05-.049.143 0 .37.457.587 1.18.17.572.218.631.764.938.464.262.64.521.64.941 0 .413-.115.943-.353 1.636-.076.22-.109.369-.109.491 0 .097.019.19.091.437.033.119.055.19.065.212.01.028.035.074.073.139Z"/><path fill="#fd0" fill-rule="nonzero" d="M7.033 27.932c.057-.127.074-.157.176-.312.149-.225.204-.344.204-.451v-.148c0-.138.024-.202.08-.202.019 0 .037.011.049.028l.046.073c.014.024.038.038.065.038.027 0 .076-.038.103-.077.067-.101.109-.23.109-.329l-.01-.1-.009-.106c0-.054.023-.079.075-.079.037 0 .051.016.082.084.02.045.046.074.069.074.026 0 .055-.022.078-.057l.074-.11.055-.083.014-.044c0-.025-.02-.049-.069-.085-.171-.122-.245-.312-.258-.653-.01-.259-.025-.429-.046-.506-.006-.017-.061-.149-.167-.395-.041-.097-.078-.208-.11-.331-.022-.085-.049-.111-.115-.111-.252 0-.44.214-.44.496 0 .166.068.428.195.746.179.447.225.607.225.764 0 .339-.136.486-.603.653-.528.19-.775.46-.866.948.04-.017.071-.028.091-.037.059-.024.102-.039.129-.047l.148-.036c.127-.032.229-.103.248-.175l.038-.129c.009-.03.027-.051.056-.064l.082-.037.084-.036.018.036-.037.119c-.012.04-.018.113-.018.216 0 .201.039.319.155.465Zm-4.951-8.508c.012.051.019.085.019.102 0 .03-.013.109-.037.238l-.017.187c0 .165.029.339.082.484.046.132.058.174.058.211l-.003.038c-.007.038-.023.066-.036.066-.018 0-.051-.02-.094-.057-.106-.092-.221-.14-.34-.14-.039 0-.092.008-.158.02l.046.101.139.341.194.294.202.138c.021.014.04.033.056.056.018.024.028.046.028.059 0 .017-.016.032-.037.033l-.185.008c-.028.002-.051.02-.051.04 0 .03.026.122.079.274l.092.265.157.148.166.119c.049.037.079.076.079.106 0 .024-.017.05-.033.051l-.092.009c-.031.004-.048.03-.048.075 0 .068.065.193.186.359.142.192.243.256.406.256h.138c.066 0 .106.033.106.085 0 .043-.026.068-.088.081-.128.027-.167.052-.167.111 0 .024.017.059.048.1l.074.102c.061.083.129.138.174.138.026 0 .083-.024.136-.084.081-.095.177-.171.298-.202.32-.082.388-.114.388-.187 0-.027-.013-.063-.037-.106-.103-.183-.139-.3-.139-.452 0-.112-.03-.193-.072-.193-.017 0-.045.028-.075.073-.076.117-.205.195-.323.195-.319 0-.704-.499-.895-1.16-.043-.153-.068-.328-.068-.496 0-.174.025-.367.068-.561.062-.271.096-.42.102-.451l.012-.125c0-.228-.211-.522-.538-.749Z"/><path fill="#fd0" fill-rule="nonzero" d="M2.747 20.702c-.069.129-.132.416-.132.599 0 .108.037.192.081.192.016 0 .034-.017.051-.046l.1-.184c.018-.031.034-.064.067-.111.036-.056.063-.109.063-.138 0-.109-.101-.243-.23-.312Zm1.014 4.148c.02.021.035.037.046.045.04.041.064.066.073.075.18.185.207.204.294.204.08 0 .248-.046.343-.094.039-.02.064-.044.064-.063 0-.011-.034-.049-.092-.102l-.101-.093c-.077-.068-.191-.132-.245-.132-.106 0-.215.046-.382.16ZM5.9 26.515c.098.042.134.06.185.092.082.056.131.086.147.092.028.012.077.019.145.019.043 0 .081-.007.113-.019l.194-.073.184-.064c.05-.017.084-.046.084-.07 0-.014-.043-.034-.102-.05-.042-.01-.087-.025-.138-.045-.227-.091-.26-.105-.341-.105-.18 0-.363.087-.471.223Zm2.333 1.849c.062-.147.104-.171.313-.183.237-.012.463-.436.463-.722 0-.029-.01-.053-.022-.053-.012 0-.033.011-.062.03-.067.044-.113.071-.138.082l-.268.121c-.178.079-.336.316-.336.504 0 .062.012.115.05.221Zm16.812-2.198.036-.101.037-.128c.007-.025.042-.079.102-.157.094-.124.141-.277.141-.458 0-.057-.015-.108-.049-.178-.019-.036-.028-.065-.028-.084 0-.013.007-.028.018-.043.013-.015.026-.026.038-.028h.005c.024 0 .064.026.096.064.039.047.073.073.093.073.042 0 .086-.068.11-.174.013-.057.018-.085.018-.091 0-.046-.037-.161-.083-.259-.017-.036-.026-.068-.026-.093 0-.034.022-.059.05-.059.027 0 .071.028.123.079.026.024.05.037.07.037.059 0 .1-.059.143-.202.027-.09.037-.131.037-.144 0-.028-.012-.044-.032-.044l-.033.003-.109.012c-.169 0-.407-.115-.517-.251l-.259-.313c-.099-.121-.238-.304-.23-.304l-.212-.137c-.036-.023-.056-.051-.056-.075 0-.035.035-.058.087-.058.05 0 .201.053.475.169.268.113.684.203.935.203.441 0 .805-.354.805-.786 0-.236-.106-.455-.366-.759-.048-.059-.131-.112-.17-.112-.03 0-.051.021-.051.053 0 .025.009.061.029.104.011.029.018.057.018.084 0 .042-.016.067-.045.067-.058 0-.119-.095-.168-.261-.061-.205-.181-.329-.461-.469-.107-.054-.247-.105-.292-.105-.018 0-.031.017-.031.041 0 .034.014.074.038.11.04.062.065.123.073.175v.008c0 .036-.018.056-.051.056-.059 0-.073-.014-.207-.22-.07-.107-.255-.246-.415-.313-.051-.022-.104-.035-.157-.037h-.005c-.035 0-.059.015-.059.035 0 .009.014.036.041.084l.014.052c0 .029-.018.05-.044.05-.055 0-.226-.14-.362-.295-.146-.169-.24-.383-.24-.551 0-.351.336-.664.715-.664.094 0 .174.017.235.047l.323.165.379.249c.217.142.514.25.695.25.067 0 .118-.009.292-.057.089-.025.146-.061.146-.094l-.004-.008-.032-.018-.204-.018c-.112-.01-.368-.126-.571-.258l-.424-.275-.379-.156c-.028-.013-.046-.032-.046-.049 0-.019.019-.034.043-.034.001 0 .036.005.105.018l.35.101c.088.026.23.091.425.193.385.205.634.295.819.295.213 0 .37-.146.37-.345 0-.067-.014-.176-.036-.262-.012-.043-.03-.084-.056-.12-.017-.023-.033-.037-.046-.037-.026 0-.042.029-.042.076l.005.062.004.053c0 .171-.067.23-.255.23-.152 0-.358-.061-.828-.246-.439-.173-.714-.24-.987-.24-.695 0-1.303.566-1.303 1.21 0 .557.372.981 1.127 1.292l.785.323c.647.265.886.456.886.708 0 .209-.195.344-.501.344-.131 0-.295-.037-.597-.132-.735-.233-1.21-.331-1.631-.331-.684 0-1.172.187-1.56.597-.052.055-.081.071-.128.071-.03 0-.062-.012-.13-.053-.07-.041-.148-.065-.203-.065-.067 0-.172.058-.221.121l-.092.12c-.027.035-.058.055-.082.055-.067 0-.186-.115-.259-.249-.046-.083-.077-.163-.092-.239-.013-.058-.02-.152-.02-.252l.01-.171.027-.184c.014-.088.023-.141.028-.156.007-.022.025-.037.045-.037.048 0 .068.044.068.143l-.002.059-.002.041c0 .262.104.502.218.502.09 0 .169-.16.236-.479.013-.064.039-.101.07-.101.037 0 .06.047.087.184.017.09.076.214.138.295.036.046.075.075.105.075.076 0 .125-.115.163-.379.014-.102.044-.166.081-.166.014 0 .028.006.038.019.007.008.028.042.065.101.022.037.058.07.1.093.047.024.084.037.108.037.029 0 .061-.014.087-.037.041-.038.064-.065.064-.076 0-.014-.019-.043-.055-.081-.06-.066-.107-.152-.166-.304-.038-.101-.066-.171-.082-.211-.015-.034-.03-.057-.047-.064l-.03-.007-.053.007c-.01.002-.075.019-.193.054l-.061.008c-.026 0-.042-.016-.042-.043 0-.024.032-.069.075-.103.233-.184.372-.496.424-.947.031-.274.067-.379.184-.543.025-.035.046-.055.057-.055.036 0 .056.028.056.081 0 .035-.01.08-.03.131-.013.034-.019.073-.019.112l.001.034.018.056.101-.037.111-.129c.065-.075.121-.248.121-.376 0-.088-.021-.149-.074-.212-.058-.069-.099-.097-.14-.097l-.063.004-.066.006c-.06 0-.089-.018-.089-.055.08-.28-.044-.372-.104-.603l-.064.046-.139.082c-.035.022-.072.056-.11.102-.131.159-.14.166-.192.166-.034 0-.053-.013-.053-.035l.005-.039c.019-.085.028-.149.028-.192 0-.16-.117-.402-.258-.535-.193.183-.296.386-.296.58v.11c0 .043-.014.064-.042.064h-.004c-.022-.004-.046-.021-.064-.046l-.111-.147c-.008-.01-.058-.051-.148-.119-.017-.014-.041-.035-.073-.065l-.037.074c-.091.183-.123.292-.129.441-.005.122-.015.159-.043.159-.015 0-.035-.007-.058-.021-.14-.079-.153-.083-.214-.083-.166 0-.278.119-.278.293 0 .066.038.17.113.305.085.15.212.288.267.288.016 0 .02-.011.02-.057l-.001-.019-.009-.157-.018-.119-.002-.016c0-.035.014-.052.041-.052.084 0 .157.244.219.73.054.429.172.723.36.892.047.044.074.08.074.1 0 .016-.016.029-.037.029-.027 0-.069-.016-.121-.045-.033-.02-.067-.029-.1-.029-.092 0-.195.107-.213.221l-.084.525-.063.735c-.013.141.005.326.054.552.043.199.065.344.065.437 0 .552-.345.988-.913 1.156l-.59.173c-.369.11-.549.352-.6.801.095-.076.123-.088.268-.11l.175-.027c.074-.013.127-.028.157-.047.017-.01.05-.044.101-.101l.157-.175c.059-.065.113-.104.145-.104.022 0 .04.024.04.054 0 .034-.023.085-.065.151-.044.068-.067.15-.067.237 0 .118.031.192.15.361.015-.055.028-.093.037-.111.016-.029.062-.093.138-.192.128-.165.22-.338.221-.415.003-.143.016-.189.052-.189.031 0 .036.008.05.088.004.02.013.04.028.055.021.024.041.038.056.038.012 0 .037-.014.073-.038.064-.041.114-.085.147-.127.038-.047.069-.104.093-.167.03-.08.046-.138.046-.172l-.001-.121c0-.03.014-.057.031-.057.022 0 .069.049.099.102.02.036.033.046.059.046h.006c.033-.004.061-.017.082-.036.112-.11.185-.246.185-.346l-.009-.17-.037-.138-.002-.013c0-.026.021-.052.045-.052.041 0 .087.059.15.195.03.063.057.092.084.092.044 0 .079-.031.165-.158l.084-.118c.018-.027.027-.06.027-.093 0-.032-.009-.064-.027-.093l-.074-.11c-.013-.017-.02-.05-.02-.093 0-.123.046-.266.139-.431.068-.119.108-.198.121-.23.013-.039.029-.056.05-.056.017 0 .032.023.032.048l-.009.101v.147c.012.033.035.046.08.046.027 0 .06-.007.096-.019l.229-.082c.055-.021.127-.054.213-.102.361-.2.473-.241.651-.241.106 0 .242.04.437.13.04.02.072.029.095.029.027 0 .057-.017.08-.047.018-.021.028-.046.028-.069 0-.035-.013-.074-.036-.114-.031-.052-.057-.115-.057-.139 0-.024.016-.04.042-.04.021 0 .053.024.069.051.028.042.099.164.212.366.172.305.396.517.591.561l.405.092c.126.03.158.077.158.235 0 .285-.135.536-.37.686l-.331.211c-.122.077-.222.288-.222.466 0 .112.028.313.065.472.467-.364.259-.078.506-.681.036-.089.079-.146.108-.146.032 0 .051.049.051.14l-.001.025-.002.034c0 .133.019.19.122.389Z"/><path fill="#fd0" fill-rule="nonzero" d="M19.594 28.953c.112-.103.131-.11.443-.174.252-.052.371-.165.424-.415.04-.182.066-.216.23-.312.054-.03.094-.062.121-.091.02-.024.036-.038.046-.038.018 0 .032.018.032.042 0 .031-.021.084-.06.152-.025.044-.037.099-.037.175 0 .148.03.248.111.368.056-.123.087-.157.231-.258.183-.128.252-.277.285-.608.014-.14.041-.211.079-.211.017 0 .033.01.041.027l.065.139c.009.018.031.03.058.03.026 0 .075-.028.117-.068l.129-.119c.055-.05.092-.177.111-.387.006-.075.033-.128.064-.128.02 0 .038.019.046.046l.056.184c.013.044.039.074.066.074.011 0 .037-.017.073-.046.05-.043.092-.089.128-.139.042-.057.065-.121.065-.183v-.157c0-.033.013-.069.037-.102.018-.023.033-.037.04-.037.021 0 .041.019.052.047l.037.102c.016.043.05.073.087.073.048 0 .097-.042.171-.147.02-.03.04-.055.055-.074.042-.05.066-.091.066-.117 0-.012-.014-.035-.038-.067-.135-.175-.203-.386-.203-.625 0-.307.116-.563.47-1.039.212-.286.333-.552.333-.737 0-.054-.025-.081-.073-.081-.033 0-.067.012-.112.035-.034.018-.058.027-.07.027-.017 0-.038-.013-.059-.036l-.065-.073-.046-.074c-.018-.029-.047-.046-.076-.046-.005 0-.029.005-.072.018l-.082.01c-.097.003-.132.037-.132.127l.002.057.002.04c0 .082-.071.204-.168.29l-.175.157c-.215.193-.384.5-.384.704 0 .087.029.23.08.399.082.276.112.407.112.496 0 .441-.676 1.022-1.929 1.658-.634.321-.794.511-.794.949l.01.163Zm-.608-9.649v.092l.001.137c0 .048-.005.082-.019.148-.031.128-.038.172-.038.208 0 .177.025.263.13.445.057.1.094.221.094.309 0 .037-.015.059-.04.059-.016 0-.033-.01-.046-.028l-.073-.101c-.059-.08-.115-.102-.264-.102l-.16.011c.064.157.084.216.11.321.075.3.085.321.25.47.164.147.179.167.179.22 0 .041-.028.074-.063.074l-.061-.009-.037-.004c-.05 0-.095.092-.095.194 0 .059.024.153.058.233.022.053.046.09.065.11l.091.091c.025.024.038.058.038.096 0 .043-.026.08-.056.08-.019 0-.047-.009-.082-.028-.023-.012-.046-.018-.065-.018-.042 0-.061.025-.061.074l.014.137.056.24c.012.052.047.113.101.175.047.053.095.092.139.111.116.05.178.077.184.081.017.013.028.041.028.073 0 .036-.028.066-.062.066-.01 0-.041-.008-.095-.019l-.094-.009c-.093 0-.1.004-.1.078 0 .046.007.093.018.142l.037.148c.04.155.091.239.146.239.012 0 .035-.013.066-.036.134-.102.402-.195.569-.195.174 0 .372.021.446.048.043.013.072.021.089.021.022 0 .029-.023.031-.105l.018-.165.038-.286.027-.212V22.8c-.034.028-.058.049-.074.063-.157.148-.256.194-.417.194-.425 0-.668-.475-.668-1.304 0-.344.05-.827.145-1.382.02-.118.029-.198.029-.256 0-.303-.192-.598-.527-.811Z"/><path fill="#fd0" fill-rule="nonzero" d="m19.613 21.365.082-.084.084-.073c.068-.06.125-.188.125-.283 0-.043-.011-.083-.033-.132-.031-.068-.093-.129-.131-.129-.032 0-.06.075-.071.194l-.019.139-.028.137-.009.139v.092Zm-.812 3.761c.095.037.114.052.212.166.127.148.199.185.369.185.045 0 .089-.007.13-.02l.119-.036.092-.028c.044-.013.075-.031.075-.047 0-.018-.073-.08-.185-.154-.074-.051-.148-.094-.221-.13-.08-.039-.146-.056-.212-.056-.13 0-.255.039-.379.12Zm1.254 2.696c.164-.071.221-.099.406-.202.162-.09.251-.138.268-.147.17-.09.249-.154.249-.201 0-.061-.104-.096-.283-.096-.356 0-.649.244-.649.54l.009.106Zm3.744-2.336c.13-.028.176-.061.24-.064l.166.009c.021-.009.057-.033.111-.075.029-.023.072-.053.129-.091.185-.126.194-.134.194-.174 0-.052-.074-.076-.23-.076-.291 0-.468.137-.61.471Z"/><path fill="#231f20" fill-rule="nonzero" d="m4.895 3.317-.047-.13-.012-.074c0-.074.038-.117.142-.156.182-.068.24-.099.314-.165l.101-.091.009-.004c.026 0 .046.03.046.068 0 .118-.126.334-.255.554-.097.162-.14.264-.18.264-.044 0-.09-.07-.1-.156l-.018-.11Zm-.544-.369.156.084c.043.022.066.053.066.088l-.011.058c-.022.078-.004.164-.006.197-.007.164-.132.163-.183.163-.029 0-.014-.02-.087-.102l-.203-.231c-.062-.07-.116-.231-.138-.413l-.001-.023c0-.051.015-.069.056-.069.025 0 .07.02.102.046l.249.202Zm.553.958.148-.093.086.02c.102 0 .126.03.126.142 0 .163-.103.232-.286.694-.081.204-.098.322-.219.322-.137 0-.239-.11-.344-.368l-.12-.295c-.084-.207-.121-.332-.121-.409 0-.07.054-.116.137-.116.045 0 .09.013.132.038.071.042.108.064.111.065l.106.009.05-.001.194-.008Zm17.229-.559-.077-.16-.013-.073c0-.079.034-.115.152-.157.117-.042.245-.11.304-.165l.102-.091.01-.004c.025 0 .045.03.045.068 0 .118-.108.303-.239.525-.095.161-.156.293-.196.293-.045 0-.09-.07-.1-.156l.012-.08Zm-.574-.399.156.084c.045.023.07.062.07.108l-.005.038-.046.166-.028.184c-.003.022-.024.038-.048.038l-.007-.001c-.039-.011-.136-.053-.201-.127l-.139-.232c-.021-.024-.076-.112-.121-.258-.017-.053-.029-.105-.037-.156l-.002-.026c0-.046.018-.066.056-.066.025 0 .071.02.102.046l.25.202Zm.562.958.138-.093.053-.011c.102 0 .22.101.22.207 0 .09-.121.144-.17.274l-.103.414c-.074.196-.172.294-.29.294-.14 0-.244-.112-.346-.368-.047-.12-.087-.218-.12-.295-.077-.181-.118-.314-.118-.383 0-.089.051-.142.136-.142.044 0 .089.013.13.038.069.042.107.063.111.065l.107.009.049-.001.203-.008ZM4.12 20.141l-.046-.138-.01-.041c0-.013.017-.025.039-.025.021 0 .071.026.109.057.041.032.066.029.13.045.251.065.304.112.304.233l-.01.154-.037.138c-.015.059-.03.08-.059.08-.02 0-.178-.115-.198-.144l-.093-.129-.129-.23Zm1.116.229-.12.213c-.029.033-.044.049-.046.05l-.009.002c-.049 0-.099-.112-.102-.227l-.018-.185c.014-.076.06-.108.175-.128.093-.016.156-.034.184-.056.088-.062.138-.095.148-.101l.015-.002c.026 0 .043.018.043.044l-.002.014-.065.156-.203.22Zm-.24.627.148-.074c.025-.013.05-.019.07-.019.072 0 .125.053.125.15 0 .104-.083.245-.195.449-.122.219-.214.367-.309.367-.131 0-.32-.21-.502-.561-.043-.082-.071-.181-.071-.255 0-.117.051-.178.149-.178.041 0 .078.01.106.029l.082.055c.073.047.155.073.236.073.057 0 .113-.012.161-.036Zm16.018-1.113.13.082c.074.047.135.082.184.101.143.058.194.08.194.134 0 .02-.007.069-.019.105-.013.042-.023.084-.027.129-.014.126-.089.157-.14.157-.062 0-.127-.097-.23-.276-.045-.082-.111-.245-.147-.368l-.005-.035c0-.023.014-.035.039-.035l.021.006Zm1.245.32-.212.213c-.075.1-.075.185-.092.203-.014.013-.036.022-.064.026l-.015.001c-.054 0-.092-.038-.096-.092l-.009-.157-.009-.156-.001-.009c0-.061.034-.092.081-.103l.197-.053.202-.101c.059-.031.077-.038.087-.038.023 0 .044.024.044.053 0 .014-.007.034-.021.058l-.092.155Zm-.931.626.138.102c.034.02.077.031.123.031.056 0 .14-.022.218-.058l.121-.056c.027-.012.051-.018.071-.018.074 0 .132.077.132.176 0 .134-.098.274-.24.477l-.102.212c-.08.115-.133.156-.2.156-.109 0-.162-.063-.325-.386-.119-.234-.167-.375-.167-.488 0-.098.051-.166.124-.166.03 0 .067-.007.107.018Z"/><path fill="#fd0" fill-rule="nonzero" d="M4.701 4.171h-.12c-.017 0-.035.011-.046.028l-.018.047.045.22.037.193c.021.107.06.149.14.149.09 0 .145-.062.156-.176l.018-.202c.012-.136.019-.206.019-.21 0-.021-.011-.041-.028-.057-.013-.013-.03-.019-.046-.019l-.01.001-.147.026Zm17.208 0h-.11c-.018 0-.035.011-.046.028-.019.027-.028.043-.028.047l.046.22.036.193c.021.107.038.149.118.149.09 0 .167-.062.177-.176l.019-.202c.012-.136.018-.206.018-.21 0-.021-.01-.041-.027-.057-.013-.013-.03-.019-.047-.019l-.009.001-.147.026ZM4.784 21.218l-.102-.019-.015-.002c-.058 0-.088.034-.088.1 0 .094.073.265.168.399.018.024.044.038.071.038.059 0 .102-.112.132-.295l.028-.139.002-.026c0-.056-.016-.077-.064-.077l-.021.002-.111.019Zm16.664.118.01.175c.003.08.07.158.133.158.085 0 .145-.127.18-.322.015-.089.021-.104.021-.129 0-.066-.023-.085-.11-.085l-.05.001h-.064l-.041-.002c-.058 0-.08.047-.08.162l.001.042Z"/><path fill="#231f20" fill-rule="nonzero" d="M11.064 12.424h.977c.11-.233.26-.334.493-.334.231 0 .379.096.511.334h.801c.096-.213.287-.335.524-.335.217 0 .426.141.498.335h.744c.112-.216.284-.335.487-.335.208 0 .375.094.499.279l.036.056h1.034v4.767h-.903v1.828h-1.06v-1.828h-2.678v1.828h-1.061v-1.847h-.902v-4.748Z"/><path fill="#ef3f35" fill-rule="nonzero" d="M11.449 12.815h5.864v4.009h-5.864z"/><path fill="#fd0" fill-rule="nonzero" d="M12.059 13.732c-.153 0-.279.124-.279.277 0 .154.126.279.279.279.155 0 .28-.125.28-.279 0-.153-.125-.277-.28-.277Z"/><path fill="none" stroke="#231f20" stroke-width=".14" d="M12.059 13.732c-.153 0-.279.124-.279.277 0 .154.126.279.279.279.155 0 .28-.125.28-.279 0-.153-.125-.277-.28-.277Z"/><path fill="#fd0" fill-rule="nonzero" d="M16.663 13.732c-.154 0-.28.124-.28.277 0 .154.126.279.28.279.153 0 .279-.125.279-.279 0-.153-.126-.277-.279-.277Z"/><path fill="none" stroke="#231f20" stroke-width=".14" d="M16.663 13.732c-.154 0-.28.124-.28.277 0 .154.126.279.28.279.153 0 .279-.125.279-.279 0-.153-.126-.277-.279-.277Z"/><path fill="#fd0" fill-rule="nonzero" d="M12.059 15.911c-.153 0-.279.125-.279.279 0 .153.129.277.289.277.149 0 .27-.124.27-.277 0-.154-.125-.279-.28-.279Z"/><path fill="none" stroke="#231f20" stroke-width=".14" d="M12.059 15.911c-.153 0-.279.125-.279.279 0 .153.129.277.289.277.149 0 .27-.124.27-.277 0-.154-.125-.279-.28-.279Z"/><path fill="#fd0" fill-rule="nonzero" d="M16.663 15.911c-.154 0-.28.125-.28.279 0 .153.126.277.28.277.153 0 .279-.124.279-.277 0-.154-.126-.279-.279-.279Z"/><path fill="none" stroke="#231f20" stroke-width=".14" d="M16.663 15.911c-.154 0-.28.125-.28.279 0 .153.126.277.28.277.153 0 .279-.124.279-.277 0-.154-.126-.279-.279-.279Z"/><path fill="#fd0" fill-rule="nonzero" d="M12.934 15.067c.378.472.854.705 1.444.705.546 0 .923-.194 1.363-.705-.44-.451-.85-.64-1.389-.64-.567 0-1.079.231-1.418.64Z"/><path fill="#231f20" fill-rule="nonzero" d="M13.212 15.067c.39-.302.72-.426 1.126-.426.41 0 .716.119 1.116.436-.347.343-.654.473-1.123.473-.417 0-.796-.164-1.119-.483Z"/><path fill="#fd0" fill-rule="nonzero" d="M13.687 14.975c.233.145.418.204.635.204.256 0 .47-.065.676-.204-.217-.105-.443-.159-.666-.159-.232 0-.45.054-.645.159Z"/><path fill="#231f20" fill-rule="nonzero" d="M11.367 13.02h6.028v.204h-6.028z"/><path fill="none" stroke="#231f20" stroke-width=".05" d="M11.367 13.02h6.028v.204h-6.028z"/><path fill="#fd0" fill-rule="nonzero" d="M12.292 12.655v.678c0 .136.107.241.248.241.162 0 .254-.087.254-.241v-.566c0-.218-.089-.354-.232-.354-.029 0-.074.012-.112.029-.031.014-.052.026-.065.037-.023.019-.041.044-.056.074-.025.05-.037.085-.037.102Zm1.813.103v.575c0 .136.108.241.248.241.163 0 .254-.087.254-.241v-.566c0-.217-.089-.355-.23-.355-.166 0-.272.135-.272.346Zm1.758-.103v.678c0 .136.108.241.248.241.162 0 .254-.087.254-.241v-.566c0-.218-.089-.354-.232-.354-.029 0-.074.012-.112.029-.032.014-.053.026-.065.037-.022.019-.041.044-.056.074-.025.05-.037.085-.037.102Zm-3.701 4.954h.547v.706h-.547zm0 .863h.547v.223h-.547zm3.738-.863h.55v.706h-.55zm0 .863h.55v.223h-.55z"/><path fill="#231f20" fill-rule="nonzero" d="M113.491 22.028c-.243 0-.479-.007-.723-.015v.203c.676 0 .966.243.966.917v3.15c0 .995-.361.995-.84.995v.203c.345-.008.699-.015 1.044-.015.346 0 .699.015 1.044.015v-.203c-.848 0-.934-.22-.934-1.301v-2.923l4.108 4.497h.18v-4.528c0-.768.259-.807.738-.807v-.203c-.306 0-.604.015-.91.015-.361 0-.73-.007-1.092-.015v.203c.786.008.951.227.951.948v3.119c-.534-.58-1.273-1.356-1.941-2.092-.895-.988-1.626-1.701-1.948-2.178-.212 0-.431.015-.643.015Zm-3.92 0c-.526 0-1.059.001-1.586-.015v.203c.621.023.746.055.746.697v3.48c0 .76-.063.885-.746.885v.203c.581-.016 1.162-.015 1.743-.015.786 0 1.571.015 2.356.015.079-.407.197-.807.322-1.198l-.188-.032c-.307.839-.652.941-1.421.98h-.488c-.777 0-.809-.22-.809-1.089v-1.333h.841c.605 0 .857 0 .857.753h.155c.009-.251-.03-.62-.03-.87 0-.281.015-.704.03-.877h-.155c-.024.18-.024.674-.66.674H109.5v-2.226h.92c.785 0 1.138.22 1.257.956l.156-.039v-1.167c-.761.016-1.508.015-2.262.015Zm-.511-4.84c-.069-2.581-.223-5.453-.223-8.154 0-.564.103-.854.325-1.026.223-.17.617-.205 1.2-.205v-.444c-.497 0-1.011.034-1.509.034-.462 0-.942-.017-1.404-.034-1.423 3.248-3.085 6.393-4.627 9.589l-4.61-9.589c-.36 0-.737.034-1.097.034-.6 0-1.217-.017-1.816-.034v.444c.565 0 .942.068 1.182.274.24.205.325.581.325 1.179 0 2.342-.119 4.667-.188 7.009-.069 2.29-.823 2.581-2.039 2.581v.445c.754-.018 1.525-.035 2.279-.035.703 0 1.422.035 2.125.035v-.445c-.686 0-1.114-.051-1.388-.291-.274-.239-.36-.7-.36-1.538 0-.24.017-.855.017-1.077l.137-6.188h.035c1.628 3.231 3.273 6.427 4.729 9.692h.343c.137-.444.479-1.282.669-1.692l4.044-8.376h.034l.12 8.154c0 .667-.137.991-.445 1.162-.292.154-.72.154-1.32.154v.445c.84-.018 1.662-.035 2.502-.035.942 0 1.885.035 2.827.035v-.445c-1.713 0-1.833-.376-1.867-1.658Zm-5.836 5.106c.142-.008.291-.031.613-.031 1.517 0 2.459 1.057 2.459 2.523 0 1.168-.558 2.445-2.255 2.445-.385 0-.817-.071-.817-.674v-4.263Zm-.564-.266c-.306 0-.621.001-.927-.015v.203c.354.008.723-.039.723.666v3.801c-.024.532-.252.548-.723.595v.203c.354-.008.699-.015 1.052-.015.369 0 .738.015 1.139.015 2.78 0 3.236-1.95 3.236-2.726 0-1.387-1.107-2.742-3.142-2.742-.582 0-1.029.015-1.358.015Zm-5.177.282c.141-.024.275-.047.471-.047.928 0 1.29.501 1.29 1.183 0 .564-.378 1.199-1.344 1.199-.134 0-.299-.015-.417-.039V22.31Zm-.29-.282c-.385 0-.761-.007-1.193-.015v.203c.416.008.714.016.714.564v3.973c0 .447-.322.548-.714.525v.203c.392-.008.761-.015 1.138-.015.345 0 .683.015 1.06.015v-.203c-.416-.008-.715-.016-.715-.564v-1.819h.715c.566.886 1.093 1.803 1.806 2.586.22-.008.448-.015.668-.015.196 0 .393.015.589.015v-.203c-.401 0-.636-.212-.888-.494-.337-.376-.714-1.003-1.428-2.045.612-.18 1.114-.674 1.114-1.34 0-.556-.33-1.386-1.814-1.386-.503 0-.778.015-1.052.015Zm-5.459 3.08.762-2.303h.016l.84 2.303h-1.618Zm-1.656 2.17v.203c.314-.008.635-.015.949-.015.307 0 .621.015.927.015v-.203h-.18c-.275-.016-.535 0-.535-.369 0-.242.11-.603.213-.932l.173-.549h1.845l.392 1.137c.056.149.118.368.118.455 0 .219-.235.258-.432.258h-.141v.203c.385-.008.762-.015 1.147-.015.298 0 .604.015.902.015v-.203c-.251 0-.486-.055-.604-.212-.126-.172-.338-.838-.448-1.144l-1.499-4.129h-.134c-.11.181-.291.267-.456.345.016.063.016.126.016.204 0 .235-.102.525-.165.705l-1.005 2.796c-.102.29-.196.596-.322.878-.196.439-.283.502-.761.557Zm-5.915-2.523c0 1.12.808 2.844 3.016 2.844.683 0 1.406-.219 2.041-.446v-.133l-.118-.118v-1.027c0-.572.299-.572.558-.572V25.1c-.235.008-.597.015-.958.015-.353 0-.714-.007-1.083-.015v.203c.416 0 .715 0 .715.572v1.168c-.118.086-.44.305-1.061.305-1.414 0-2.247-1.355-2.247-2.71 0-1.278.801-2.492 2.192-2.492.88 0 1.641.36 1.845 1.269h.173l-.134-1.097c-.651-.243-1.318-.423-2.018-.423-1.642 0-2.921 1.214-2.921 2.86Zm-8.875-.102c0 1.763 1.161 2.946 3 2.946.518 0 1.406-.211 1.736-.415l.18-1.144-.18-.047c-.157.823-.802 1.355-1.579 1.355-1.21 0-2.341-1.136-2.341-2.718 0-1.881 1.311-2.484 2.215-2.484.88 0 1.532.368 1.681 1.285h.196l-.078-1.121c-.605-.212-1.218-.415-1.854-.415-1.54 0-2.976 1.151-2.976 2.758Zm-1.894-2.625c-.353 0-.714-.007-1.083-.015v.203c.416.008.715.016.715.564v3.934c0 .548-.299.556-.715.564v.203c.393-.008.762-.015 1.138-.015.345 0 .683.015 1.06.015v-.203c-.416-.008-.715-.016-.715-.564V22.78c0-.548.299-.556.715-.564v-.203c-.393.008-.754.015-1.115.015Zm-7.107 0c-.244 0-.479-.007-.723-.015v.203c.676 0 .966.243.966.917v3.15c0 .995-.361.995-.84.995v.203c.345-.008.699-.015 1.043-.015.346 0 .7.015 1.045.015v-.203c-.848 0-.934-.22-.934-1.301v-2.923l4.108 4.497h.18v-4.528c0-.768.259-.807.738-.807v-.203c-.306 0-.605.015-.911.015-.36 0-.73-.007-1.091-.015v.203c.786.008.951.227.951.948v3.119c-.534-.58-1.273-1.356-1.941-2.092-.896-.988-1.626-1.701-1.948-2.178-.212 0-.431.015-.643.015Zm-4.823 3.08.762-2.303h.015l.841 2.303h-1.618Zm-1.657 2.17v.203c.314-.008.636-.015.95-.015.307 0 .621.015.927.015v-.203h-.181c-.275-.016-.534 0-.534-.369 0-.242.11-.603.212-.932l.173-.549h1.845l.393 1.137c.055.149.118.368.118.455 0 .219-.236.258-.432.258h-.142v.203c.385-.008.762-.015 1.147-.015.298 0 .605.015.903.015v-.203c-.252 0-.487-.055-.605-.212-.125-.172-.337-.838-.447-1.144l-1.5-4.129H62.5c-.109.181-.29.267-.455.345.016.063.016.126.016.204 0 .235-.102.525-.165.705l-1.005 2.796c-.103.29-.197.596-.322.878-.197.439-.283.502-.762.557Zm.677-16.671v4.872c0 1.179-.274 3.367-3.119 3.367-2.673 0-3.341-1.966-3.341-4V9.034c0-1.196.651-1.214 1.559-1.231v-.444c-.857.017-1.645.034-2.434.034-.771 0-1.559-.017-2.364-.034v.444c.908.017 1.559.035 1.559 1.231v6.239c.051 2.906 1.748 4.273 4.576 4.273 3.015 0 4.472-1.743 4.472-4.067v-4.924c0-2.085-.017-2.752 1.354-2.752v-.444c-.582 0-1.148.034-1.731.034-.72 0-1.439-.017-2.159-.034v.444c1.525.051 1.628 0 1.628 2.804ZM55.11 21.793l-.086 1.246h.203c.133-.509.165-.705.872-.705h1.029v4.38c0 .548-.298.556-.715.564v.203c.393-.008.762-.015 1.139-.015.345 0 .683.015 1.06.015v-.203c-.416-.008-.715-.016-.715-.564v-4.38h1.195c.628 0 .605.282.628.705h.212l.07-1.246h-.164c-.031.15-.227.22-.511.22h-3.566c-.196 0-.408-.008-.495-.22h-.156Zm-5.554 2.758c0-1.418.723-2.405 1.87-2.405 1.343 0 2.035 1.606 2.035 2.797 0 1.418-.723 2.405-1.87 2.405-1.344 0-2.035-1.606-2.035-2.797Zm-.863.227c0 1.489 1.232 2.821 2.803 2.821 1.721 0 2.828-1.449 2.828-2.883 0-1.489-1.233-2.821-2.804-2.821-1.72 0-2.827 1.449-2.827 2.883Zm-3.606-2.5c.118-.007.228-.015.33-.015.629 0 1.163.133 1.163 1.034 0 .988-.558 1.192-1.194 1.192h-.299v-2.211Zm0 2.46h.471c.778 0 1.478.251 1.478 1.372 0 .486-.307 1.121-1.242 1.121-.707 0-.707-.29-.707-.643v-1.85Zm-.832-2.709c-.212 0-.432-.016-.651-.016v.203c.416.008.714.016.714.564v3.973c0 .447-.322.548-.714.525v.203c.337-.008.683-.015 1.028-.015.369 0 .738.015 1.107.015 1.391 0 2.113-.634 2.113-1.473 0-1.105-1.178-1.495-1.767-1.465v-.015c.605-.141 1.264-.517 1.264-1.246 0-1.105-1.248-1.269-1.829-1.269-.284 0-.574.016-1.021.016h-.244Zm-9.662 3.564c0-.619.425-.995.912-1.3.676.579 1.335 1.19 1.869 1.912-.4.454-.714.815-1.374.815-.762 0-1.407-.674-1.407-1.427Zm1.383-1.739c-.361-.252-.762-.51-.762-.996 0-.391.259-.697.628-.697.441 0 .669.322.669.776 0 .399-.204.705-.535.917Zm-1.963 2.17c0 .878.722 1.575 1.594 1.575.903 0 1.335-.603 1.893-1.206.44.595.895 1.362 1.728 1.362.62 0 1.044-.414 1.382-.884l-.126-.118c-.219.267-.486.486-.848.486-.808 0-1.217-.87-1.68-1.395 1.429-1.661 1.335-2.226 2.576-2.226v-.202c-.361.015-.731.022-1.092.022-.329 0-.667-.007-.997-.022v.202c.173 0 .487 0 .487.252 0 .384-.833 1.465-1.108 1.786-.471-.634-1.021-1.214-1.657-1.692.416-.228.863-.548.863-1.074 0-.619-.548-.932-1.114-.932-.708 0-1.218.454-1.218 1.191 0 .461.267.792.636 1.034-.77.431-1.319.894-1.319 1.841ZM38.46.707h.1V.554h-1.348v.153h.095c.188 0 .447 0 .447.465v2.044c0 .883-.395 1.349-1.142 1.349-.768 0-1.141-.433-1.141-1.324V1.172c0-.465.274-.465.494-.465h.047V.554H34.24v.153h.047c.224 0 .478 0 .478.465v2.165c0 1.012.551 1.483 1.735 1.483 1.05 0 1.56-.568 1.56-1.737V1.172c0-.465.25-.465.4-.465Zm5.043 0h.065V.554h-1.51v.153h.106c.161 0 .535.058.535.592v2.366L40.155.554H38.98v.153h.053c.327 0 .559.167.559.568v2.509c0 .42-.063.792-.553.792h-.059v.153h1.494v-.153h-.058c-.507 0-.567-.375-.567-.794l-.001-2.514 2.886 3.483.222-.001V1.499c0-.731.283-.792.547-.792Zm.564 4.022h1.748v-.153h-.059c-.239 0-.459-.044-.459-.368V1.076c0-.325.22-.369.459-.369h.059V.554h-1.748v.153h.059c.238 0 .459.044.459.369v3.132c0 .324-.221.368-.459.368h-.059v.153ZM50.179.707h.026V.554h-1.192v.153h.078c.38 0 .486.133.321.571l-.92 2.566-1.085-2.727c-.085-.226-.027-.41.269-.41h.112V.554h-1.73v.153h.035c.254 0 .396.054.516.359l1.515 3.679h.265l1.396-3.713c.112-.287.265-.325.394-.325Zm-2.777 18.549c.942 0 1.885.035 2.827.035v-.445c-1.714 0-1.834-.376-1.868-1.658-.068-2.581-.222-5.453-.222-8.154 0-.564.102-.854.325-1.026.223-.17.617-.205 1.2-.205v-.444c-.497 0-1.011.034-1.508.034-.463 0-.943-.017-1.405-.034-1.423 3.248-3.085 6.393-4.627 9.589l-4.61-9.589c-.36 0-.737.034-1.097.034-.6 0-1.217-.017-1.817-.034v.444c.566 0 .943.068 1.183.274.24.205.325.581.325 1.179 0 2.342-.12 4.667-.188 7.009-.068 2.29-.822 2.581-2.039 2.581v.445c.754-.018 1.525-.035 2.279-.035.702 0 1.422.035 2.125.035v-.445c-.686 0-1.114-.051-1.388-.291-.275-.239-.36-.7-.36-1.538 0-.24.017-.855.017-1.077l.137-6.188h.034c1.628 3.231 3.274 6.427 4.73 9.692h.343c.137-.444.48-1.282.668-1.692l4.045-8.376h.034l.12 8.154c0 .667-.137.991-.446 1.162-.291.154-.72.154-1.319.154v.445c.839-.018 1.662-.035 2.502-.035Zm6.192-14.529.191-.92s-.112-.024-.14-.031c-.191.69-.509.732-1.191.732-.381 0-.741 0-.741-.416V2.659h.716c.384 0 .461.253.483.579l.142-.002V1.871h-.142c-.04.338-.136.533-.485.533h-.714V.772h.832c.618 0 .706.315.738.701.033-.009.141-.037.141-.037l-.011-.882h-2.925v.152h.059c.238 0 .458.045.458.369v3.131c0 .323-.22.368-.458.368h-.059v.153h3.106Zm2.241-2.128h-.359l.001-1.848c.109-.017.279-.027.405-.027.536 0 .892.356.892.907 0 .679-.288.968-.939.968Zm1.35 2.13h1.071v-.156c-.283-.015-.417-.113-.581-.366l-1.026-1.559.027-.011c.366-.147.831-.448.831-1.042 0-.7-.46-1.041-1.387-1.041h-1.874v.153h.083c.154 0 .441 0 .441.483v3.036c0 .259-.238.35-.441.35h-.083v.153h1.82v-.153h-.083c-.297 0-.507-.036-.507-.508V2.769h.463l1.246 1.96Zm2.004-3.26c0-.5.336-.777.789-.777.481 0 .704.328.776.755l.157-.022-.057-.813c-.165-.033-.542-.1-.875-.1-.814 0-1.383.483-1.383 1.229 0 .771.551 1.027 1.028 1.275.408.212.845.412.845.921 0 .42-.307.714-.789.714-.504 0-.886-.348-1.001-.948l-.153.026.101.904c.314.179.708.236.991.236.711 0 1.481-.386 1.481-1.247 0-.778-.571-1.036-1.068-1.286-.406-.204-.842-.397-.842-.867Zm2.517 3.26h1.749v-.153h-.059c-.238 0-.459-.044-.459-.368V1.076c0-.325.221-.369.459-.369h.059V.554h-1.749v.153h.06c.238 0 .458.044.458.369v3.132c0 .324-.22.368-.458.368h-.06v.153Zm5.801-3.303.107-1.089h-.135c-.027.182-.206.217-.345.217h-2.77c-.146 0-.298-.034-.354-.209h-.122l-.096 1.076h.149c.085-.422.126-.612.562-.612h.854v3.235c0 .507-.194.532-.512.532h-.088v.153h1.907v-.153h-.088c-.27 0-.512-.041-.512-.544V.809h.844c.406 0 .442.365.451.617h.148Zm2.289 5.933c-.685-.103-1.388-.257-2.091-.257-2.091 0-3.667 1.146-3.667 3.351 0 4.034 5.073 3.094 5.073 6.273 0 1.351-1.029 2.274-2.349 2.274-1.422 0-2.382-1.248-2.673-2.53h-.394l.343 2.495c.806.376 1.731.581 2.622.581 2.022 0 4.027-1.247 4.027-3.469 0-3.932-5.278-3.06-5.278-6.24 0-1.248.753-2.188 2.056-2.188 1.234 0 2.022.701 2.211 1.898h.394l-.274-2.188Zm2.1-6.65V.554h-1.178l-.001.153h.069c.448 0 .395.238.214.51l-.791 1.248-.894-1.382c-.141-.201-.117-.376.215-.376h.054V.554h-1.73v.153h.035c.28 0 .412.167.589.421l1.153 1.645v1.283c0 .438-.179.52-.511.52h-.089v.153h1.907v-.153h-.088c-.319 0-.512-.038-.512-.568V2.674S71.4 1.04 71.401 1.04c.109-.153.254-.318.495-.331Zm4.87 1.951c0 1.306-.446 1.941-1.365 1.941-1.002 0-1.458-1.109-1.458-2.141 0-.417.098-1.778 1.358-1.778.952 0 1.465 1.019 1.465 1.978Zm.778-.133c0-1.215-.917-2.064-2.231-2.064-1.204 0-2.148.971-2.148 2.209 0 1.245.916 2.148 2.178 2.148 1.275 0 2.201-.964 2.201-2.293Zm3.272-1.053c.033-.009.117-.03.141-.037l-.012-.883h-2.924v.153h.059c.239 0 .459.044.459.369v3.132c0 .324-.22.368-.459.368h-.059v.153h1.866v-.153h-.053c-.276 0-.588 0-.588-.368V2.66h.743c.43 0 .491.331.494.593h.138V1.915h-.138c-.003.218-.054.491-.399.491h-.838V.772h.955c.5 0 .582.343.615.702Zm.109 17.817c.171-.889.428-1.761.702-2.616l-.411-.069c-.668 1.83-1.422 2.052-3.102 2.137h-1.062c-1.697 0-1.766-.478-1.766-2.376v-2.906h1.834c1.32 0 1.868 0 1.868 1.641h.343c.017-.547-.069-1.35-.069-1.897 0-.615.034-1.539.069-1.915h-.343c-.051.394-.051 1.471-1.439 1.471h-2.263V7.906h2.006c1.713 0 2.484.478 2.741 2.085l.343-.085V7.359c-1.662.034-3.29.034-4.935.034-1.148 0-2.314 0-3.462-.034v.444c1.354.051 1.628.12 1.628 1.522v7.589c0 1.658-.137 1.932-1.628 1.932v.445c1.268-.035 2.536-.035 3.804-.035 1.714 0 3.428.035 5.142.035Zm3.502-11.898c-.771 0-1.559-.017-2.365-.034v.444c.909.017 1.56.035 1.56 1.231v6.239c.051 2.906 1.748 4.273 4.575 4.273 3.016 0 4.473-1.743 4.473-4.067v-4.924c0-2.085-.017-2.752 1.354-2.752v-.444c-.583 0-1.148.034-1.731.034-.72 0-1.439-.017-2.159-.034v.444c1.525.051 1.628 0 1.628 2.804v4.872c0 1.179-.275 3.367-3.119 3.367-2.674 0-3.342-1.966-3.342-4V9.034c0-1.196.651-1.214 1.56-1.231v-.444c-.857.017-1.646.034-2.434.034Zm1.845-3.289-.11-.205c-.337.432-.783.665-1.408.665-1.113 0-1.573-.978-1.573-2.014 0-1.163.568-1.885 1.483-1.885.89 0 1.154.515 1.312 1.077l.139-.017-.045-.971c-.438-.204-.886-.301-1.423-.301-.601 0-1.132.203-1.537.565-.436.39-.69 1.003-.69 1.626 0 1.412.865 2.21 2.22 2.21.667 0 1.252-.26 1.632-.75Zm2.377-1.066h-1.175l.588-1.632.587 1.632ZM90.3 4.743v-.154h-.013c-.217 0-.365-.114-.467-.402L88.452.551 88.135.55s-1.334 3.618-1.334 3.619c-.099.256-.273.415-.532.415h-.014l-.001.157h1.279v-.157h-.055c-.309 0-.518-.098-.384-.495l.305-.845h1.325l.331.922c.095.29-.029.423-.346.423h-.037l.001.154H90.3Zm3.915-.003h1.744v-.151c-.322-.012-.493-.041-.518-.367l-.162-2.78c-.035-.593.048-.74.521-.74h.022V.548h-1.166c-.014.034-1.35 3.178-1.35 3.178S91.893.582 91.878.549h-1.189v.152h.048c.334 0 .533.205.511.567l-.164 2.65c-.022.387-.051.652-.529.671h-.054v.152h1.417v-.152h-.036c-.386-.015-.564-.065-.539-.638l.139-2.589s1.506 3.376 1.52 3.41h.127c.014-.033 1.453-3.479 1.453-3.479s.128 2.68.128 2.681l.006.301c0 .284-.205.296-.489.313 0 0-.007.001-.012.001v.151Zm5.031-1.159c0 .572-.386.992-.898.992-.426 0-.557-.117-.557-.526V2.572h.403c.658 0 1.052.365 1.052 1.009Zm-1.139-1.193h-.316V.705h.38c.554 0 .834.276.834.868 0 .535-.319.815-.898.815Zm1.592.469c-.237-.242-.518-.358-1.047-.397.516-.083 1.102-.329 1.102-.992 0-.601-.483-.917-1.359-.917l-1.866.001v.153h.084c.154 0 .442 0 .442.486v3.041c0 .26-.238.357-.442.357h-.084v.152h2.059c.786 0 1.391-.527 1.391-1.185 0-.275-.097-.512-.28-.699Zm2.321-.253h-.36l.001-1.855c.119-.02.28-.027.406-.027.538 0 .895.357.895.91 0 .682-.288.972-.942.972Zm1.355 2.139h1.076v-.156c-.284-.016-.418-.114-.584-.367l-1.03-1.566.027-.011c.368-.149.834-.451.834-1.047 0-.703-.462-1.045-1.392-1.045h-1.881v.154h.083c.154 0 .443 0 .443.485v3.048c0 .26-.239.352-.443.352h-.083v.153h1.826V4.59h-.083c-.297 0-.508-.037-.508-.51V2.775h.465l1.25 1.968Zm1.332 0h1.756v-.154h-.06c-.239 0-.461-.045-.461-.37V1.074c0-.325.222-.37.461-.37h.06V.551h-1.756v.153h.059c.239 0 .461.045.461.37v3.145c0 .325-.222.37-.461.37h-.059v.154Zm5.835-1.991c0 .894-.483 1.806-1.545 1.806-.451 0-.639-.072-.639-.516V.75c.1-.01.323-.019.427-.019 1.182 0 1.757.632 1.757 2.021Zm.125 1.444c.409-.404.643-.973.643-1.561 0-.628-.212-1.158-.616-1.532-.408-.379-.993-.554-1.691-.554l-1.879.002v.153h.06c.239 0 .46.045.46.37v3.145c0 .325-.221.37-.46.37h-.06v.154l1.973-.002c.583 0 1.159-.139 1.57-.545Zm5.262-1.041h.05v-.149h-1.615v.149h.049c.31 0 .474.119.474.344v1.028c-.158.071-.423.111-.681.105-1.115 0-1.615-1.052-1.615-2.114 0-1.155.592-1.873 1.568-1.873.724 0 1.046.282 1.22 1.002l.141-.008-.067-1.001c-.325-.108-.837-.207-1.335-.207-1.113 0-2.295.673-2.295 2.149 0 1.388.896 2.284 2.283 2.284.575 0 1.092-.097 1.478-.221V3.499c0-.225.12-.344.345-.344Zm2.237 4.204c-.685-.103-1.388-.257-2.091-.257-2.091 0-3.667 1.146-3.667 3.351 0 4.034 5.073 3.094 5.073 6.273 0 1.351-1.029 2.274-2.348 2.274-1.422 0-2.382-1.248-2.674-2.53h-.394l.343 2.495c.805.376 1.731.581 2.622.581 2.022 0 4.027-1.247 4.027-3.469 0-3.932-5.278-3.06-5.278-6.24 0-1.248.754-2.188 2.056-2.188 1.234 0 2.023.701 2.211 1.898h.394l-.274-2.188Zm1.513-3.54s-.112-.024-.14-.031c-.192.693-.511.736-1.197.736-.383 0-.744 0-.744-.419V2.666h.72c.386 0 .462.254.484.582l.143-.002V1.875h-.143c-.04.339-.135.535-.487.535h-.717V.77h.835c.622 0 .71.317.741.705.035-.01.143-.036.143-.036l-.011-.888h-2.938v.154h.059c.24 0 .461.045.461.37V4.22c0 .325-.221.37-.461.37h-.059v.153h3.119l.192-.924Z"/></svg>